<svg width="339" height="338" viewBox="0 0 339 338" fill="none" xmlns="http://www.w3.org/2000/svg">
<path d="M5.39598 160.369C3.05307 160.253 1.05404 162.059 0.99702 164.404C0.222526 196.256 8.49294 227.708 24.8913 255.092C42.0177 283.693 67.2408 306.573 97.3707 320.839C127.501 335.105 161.184 340.116 194.162 335.238C227.14 330.36 257.931 315.813 282.641 293.436C307.351 271.059 324.87 241.857 332.984 209.523C341.098 177.189 339.441 143.175 328.223 111.782C317.006 80.3897 296.731 53.0285 269.963 33.1588C244.333 14.1338 213.853 2.79488 182.08 0.417059C179.741 0.241992 177.747 2.05273 177.631 4.39564C177.514 6.73855 179.321 8.72612 181.66 8.90431C211.754 11.197 240.619 21.9562 264.9 39.9798C290.319 58.8481 309.572 84.8303 320.224 114.641C330.876 144.451 332.449 176.751 324.745 207.455C317.04 238.16 300.403 265.89 276.939 287.139C253.474 308.389 224.235 322.203 192.919 326.835C161.603 331.467 129.617 326.708 101.006 313.161C72.3945 299.615 48.4427 277.888 32.1794 250.728C16.6442 224.785 8.79097 194.998 9.48428 164.824C9.53817 162.479 7.73888 160.485 5.39598 160.369Z" fill="url(#paint0_linear_133_1679)" fill-opacity="0.7"/>
<defs>
<linearGradient id="paint0_linear_133_1679" x1="38.0288" y1="31.6793" x2="229.717" y2="394.318" gradientUnits="userSpaceOnUse">
<stop stop-color="#75FA88"/>
<stop offset="1" stop-color="#75FA88" stop-opacity="0.27"/>
</linearGradient>
</defs>
</svg>
