<svg width="427" height="40" viewBox="0 0 427 40" fill="none" xmlns="http://www.w3.org/2000/svg">
<path d="M0 24.2665C43.5381 24.5598 129.367 23.4159 172.971 23.707C173.039 23.7074 173.1 23.7352 173.147 23.7839L178.474 29.3406C178.588 29.4591 178.783 29.4378 178.868 29.2976L195.824 1.43906C195.923 1.27604 196.161 1.27981 196.255 1.44589L208.947 23.8708C209.044 24.0423 209.293 24.0393 209.385 23.8654L212.228 18.5402C212.323 18.3623 212.579 18.3643 212.671 18.5436L222.969 38.5578C223.069 38.7531 223.355 38.7332 223.427 38.5259L234.775 6.06129C234.846 5.85929 235.121 5.83358 235.228 6.019L245.665 24.1413C245.71 24.2187 245.793 24.2665 245.882 24.2665H427" stroke="url(#paint0_linear_133_1503)" stroke-width="2"/>
<defs>
<linearGradient id="paint0_linear_133_1503" x1="369.5" y1="23.7899" x2="61.5008" y2="24.3284" gradientUnits="userSpaceOnUse">
<stop stop-color="#15BFFD" stop-opacity="0"/>
<stop offset="0.245211" stop-color="#75FA88"/>
<stop offset="0.507389" stop-color="#75FA88"/>
<stop offset="0.838894" stop-color="#75FA88"/>
<stop offset="1" stop-color="#15BFFD" stop-opacity="0"/>
</linearGradient>
</defs>
</svg>
