<svg xmlns:mydata="http://www.w3.org/2000/svg" mydata:contrastcolor="#75FA88"
    mydata:template="Contrast" mydata:presentation="2.5" mydata:layouttype="undefined"
    mydata:specialfontid="undefined" mydata:id1="244" mydata:id2="990"
    mydata:companyname="SuperCasinoSlots" mydata:companytagline="" version="1.1"
    xmlns="http://www.w3.org/2000/svg" xmlns:xlink="http://www.w3.org/1999/xlink"
    viewBox="146.00004914808085 105.99999999999999 257.99990170383825 258" class="watermark-logo">
    <defs>
        <linearGradient x1="146.00005" y1="235" x2="403.99995" y2="235"
            gradientUnits="userSpaceOnUse" id="color-15370732553">
            <stop offset="0" stop-color="#75FA88"></stop>
            <stop offset="1" stop-color="#75FA88"></stop>
        </linearGradient>
    </defs>
    <g fill="url(#color-15370732553)" fill-rule="none" stroke="none" stroke-width="1"
        stroke-linecap="butt" stroke-linejoin="miter" stroke-miterlimit="10" stroke-dasharray=""
        stroke-dashoffset="0" font-family="none" font-weight="none" font-size="none"
        text-anchor="none" style="mix-blend-mode: normal">
        <g
            data-paper-data="{&quot;isGlobalGroup&quot;:true,&quot;bounds&quot;:{&quot;x&quot;:146.00004914808085,&quot;y&quot;:105.99999999999999,&quot;width&quot;:257.99990170383825,&quot;height&quot;:258}}">
            <g
                data-paper-data="{&quot;fillRule&quot;:&quot;evenodd&quot;,&quot;fillRuleOriginal&quot;:&quot;evenodd&quot;,&quot;isIcon&quot;:true,&quot;iconStyle&quot;:&quot;standalone&quot;,&quot;selectedEffects&quot;:{&quot;container&quot;:&quot;&quot;,&quot;transformation&quot;:&quot;&quot;,&quot;pattern&quot;:&quot;&quot;},&quot;bounds&quot;:{&quot;x&quot;:196.3640535508345,&quot;y&quot;:156.36311973729778,&quot;width&quot;:157.2738588215662,&quot;height&quot;:157.2738588215662},&quot;iconType&quot;:&quot;icon&quot;,&quot;isDetailed&quot;:false,&quot;source&quot;:&quot;noun&quot;,&quot;rawIconId&quot;:&quot;4020578&quot;,&quot;suitableAsStandaloneIcon&quot;:true}"
                fill-rule="evenodd">
                <path
                    d="M334.40482,219.08351c11.09329,7.62425 17.74455,14.39169 18.03136,14.68577l1.20173,1.23077l-1.20173,1.22895c-0.28682,0.29408 -6.93807,7.05969 -18.03136,14.68577c5.79443,12.15343 8.17066,21.33702 8.27231,21.73639l0.42478,1.66644l-1.65555,0.46471c-0.39573,0.11255 -9.53758,2.64671 -22.95809,3.70503c-1.0565,13.4205 -3.59247,22.56235 -3.70321,22.95809l-0.46471,1.65555l-1.66644,-0.42478c-0.39937,-0.10165 -9.58296,-2.47788 -21.73457,-8.27231c-7.62607,11.09329 -14.39351,17.74455 -14.68759,18.03136l-1.23077,1.20173l-1.23077,-1.19991c-0.2959,-0.28682 -7.06151,-6.93807 -14.68759,-18.03136c-12.1498,5.79443 -21.33521,8.17066 -21.73457,8.27231l-1.66644,0.42478l-0.46471,-1.65555c-0.11074,-0.39573 -2.64489,-9.53758 -3.70321,-22.95809c-13.4205,-1.05832 -22.56235,-3.59429 -22.95809,-3.70503l-1.65555,-0.46471l0.42478,-1.66644c0.10165,-0.39937 2.47788,-9.58478 8.27231,-21.73639c-11.09329,-7.62425 -17.74455,-14.39169 -18.03136,-14.68577l-1.20173,-1.23077l1.20173,-1.22895c0.28863,-0.29408 6.93807,-7.05969 18.03136,-14.68577c-5.79443,-12.15161 -8.17066,-21.33702 -8.27231,-21.73639l-0.42478,-1.66644l1.65555,-0.46471c0.39573,-0.11255 9.53758,-2.64671 22.95809,-3.70503c1.0565,-13.41869 3.59247,-22.56235 3.70321,-22.95809l0.46471,-1.65555l1.66644,0.42478c0.39937,0.10165 9.58478,2.47788 21.73639,8.27231c7.62425,-11.09329 14.39169,-17.74455 14.68577,-18.03136l1.23077,-1.20173l1.23077,1.19991c0.29408,0.28863 7.05969,6.93807 14.68577,18.03136c12.15161,-5.79443 21.33521,-8.17066 21.73457,-8.27231l1.66644,-0.42478l0.46471,1.65555c0.11255,0.39573 2.64671,9.53758 3.70503,22.95809c13.4205,1.05832 22.56235,3.59429 22.95809,3.70503l1.65555,0.46471l-0.42478,1.66644c-0.10165,0.39937 -2.47788,9.58478 -8.27231,21.73639zM288.85534,178.8238c-5.86886,-8.72614 -11.45454,-14.93809 -13.85437,-17.47407c-2.24552,2.37259 -7.27753,7.9619 -12.7198,15.81307c0.03994,0.02178 0.08169,0.04175 0.12344,0.06354c0.11799,0.05991 0.23781,0.12163 0.3558,0.18153c0.20332,0.10347 0.40482,0.20876 0.60631,0.31223c0.12707,0.06535 0.25233,0.13252 0.3794,0.19787c0.19242,0.09985 0.38666,0.2015 0.57908,0.30315c0.12889,0.06898 0.25777,0.13614 0.38666,0.20513l0.57182,0.30497c0.12707,0.06898 0.25233,0.13614 0.3794,0.20513c0.19605,0.10529 0.39029,0.21057 0.58452,0.31768c0.11799,0.06535 0.23781,0.1307 0.35762,0.19605c0.21057,0.11618 0.42296,0.23417 0.63354,0.35217c0.09985,0.05627 0.19968,0.11074 0.29953,0.16701c0.3086,0.17245 0.61539,0.34673 0.92218,0.52099c0.00182,0 0.00182,0.00182 0.00363,0.00182c0.30679,0.17608 0.61357,0.35217 0.91854,0.53007c0.09985,0.05627 0.19787,0.11436 0.2959,0.17245c0.20513,0.11981 0.41026,0.23962 0.61539,0.36124c0.11799,0.06898 0.23417,0.13978 0.35217,0.20876c0.18516,0.10892 0.37032,0.21965 0.55367,0.33039l0.37032,0.22328c0.17608,0.1071 0.35398,0.21421 0.53007,0.32313c0.12344,0.07625 0.2487,0.15248 0.37213,0.22873c0.17608,0.10892 0.35217,0.21783 0.52643,0.32675l0.36488,0.22873c0.17972,0.11255 0.35943,0.2251 0.53733,0.33946c0.11255,0.07261 0.22691,0.14523 0.34128,0.21783c0.19605,0.12525 0.39029,0.25051 0.58452,0.37577c0.09621,0.06172 0.19242,0.12344 0.28682,0.18516c0.28863,0.18698 0.57545,0.37577 0.86045,0.56456c1.94963,1.29249 3.84662,2.63037 5.68007,4.00274c1.83345,1.37236 3.60156,2.78103 5.2916,4.21512c1.83164,1.55571 3.59792,3.16225 5.27889,4.80147c1.00931,0.98389 1.98594,1.97868 2.92808,2.98253c1.44679,1.54119 2.83368,3.12594 4.14796,4.73611c0.73338,0.89858 1.44316,1.80622 2.12753,2.7175l0.00363,0.00182l0.15067,0.20332l0.00182,0.00182l3.6669,4.91583l-0.09803,-0.36488c-0.01452,-0.05265 -0.02905,-0.1071 -0.04356,-0.15974c-0.04175,-0.14704 -0.08169,-0.29408 -0.12344,-0.44293c-0.01997,-0.06716 -0.03812,-0.13252 -0.05627,-0.19787c-0.03994,-0.14341 -0.07987,-0.285 -0.12163,-0.42841c-0.01815,-0.05991 -0.03449,-0.11981 -0.05265,-0.17972c-0.05446,-0.18698 -0.10892,-0.37577 -0.16519,-0.56456c-0.00363,-0.01271 -0.00726,-0.0236 -0.01089,-0.03631c-0.05991,-0.19968 -0.11981,-0.39937 -0.18153,-0.60086c-0.01815,-0.05991 -0.03631,-0.11799 -0.05446,-0.17608c-0.04356,-0.14341 -0.08714,-0.28682 -0.13252,-0.43022c-0.01997,-0.06716 -0.04175,-0.13614 -0.06354,-0.20513c-0.04356,-0.13978 -0.08714,-0.28137 -0.13252,-0.42115c-0.01997,-0.06172 -0.03994,-0.12525 -0.05991,-0.18698c-0.05991,-0.19061 -0.12344,-0.38302 -0.18516,-0.57363c-0.00363,-0.00907 -0.00545,-0.01634 -0.00907,-0.02542c-0.06535,-0.19968 -0.1307,-0.39937 -0.19787,-0.59905c-0.01997,-0.06172 -0.04175,-0.12344 -0.06172,-0.18516c-0.0472,-0.13978 -0.09621,-0.28137 -0.14341,-0.42115c-0.0236,-0.0708 -0.0472,-0.13978 -0.0708,-0.20876c-0.0472,-0.14159 -0.09621,-0.28137 -0.14523,-0.42115c-0.02178,-0.06354 -0.04356,-0.12525 -0.06535,-0.18698c-0.0708,-0.19787 -0.14159,-0.39755 -0.21239,-0.59723c-1.1745,-3.2857 -2.55594,-6.61495 -4.11892,-9.92968c-0.36124,-0.76424 -0.73157,-1.52848 -1.11096,-2.29091c-0.15612,-0.31586 -0.31586,-0.62991 -0.47561,-0.94577c-2.40346,-4.72704 -5.19357,-9.45952 -8.30318,-14.08309zM258.91198,179.42285c-9.44681,-4.62175 -17.39057,-7.20855 -20.73616,-8.20515c-0.75879,3.17677 -2.32177,10.53418 -3.11142,20.05724c0.04538,-0.00363 0.09076,-0.00545 0.13614,-0.00726c0.1307,-0.00726 0.25959,-0.01271 0.38847,-0.01997c0.22691,-0.01089 0.45201,-0.02178 0.67892,-0.03267c0.13796,-0.00545 0.27774,-0.01271 0.41571,-0.01815c0.21965,-0.00907 0.43749,-0.01815 0.65714,-0.02723c0.13978,-0.00545 0.27774,-0.01089 0.41571,-0.01634l0.68074,-0.02178c0.12707,-0.00363 0.25233,-0.00726 0.3794,-0.01089c0.27411,-0.00726 0.54641,-0.01452 0.8187,-0.01997c0.07806,-0.00182 0.15793,-0.00363 0.23599,-0.00545c0.35035,-0.00726 0.69889,-0.01271 1.04743,-0.01815c0.09621,-0.00182 0.19242,-0.00182 0.28863,-0.00363c0.25414,-0.00363 0.50829,-0.00545 0.76061,-0.00726c0.12889,-0.00182 0.25596,-0.00182 0.38484,-0.00182c0.14341,0 0.28682,-0.00182 0.42841,-0.00182h0.2251c0.15793,0 0.31586,0.00182 0.4738,0.00182c0.2015,0 0.40118,0.00182 0.60268,0.00363l0.4738,0.00545c0.19968,0.00182 0.40118,0.00545 0.60086,0.00907c0.15612,0.00363 0.31223,0.00545 0.46835,0.00907c0.2015,0.00363 0.403,0.00907 0.6045,0.01452c0.1543,0.00363 0.30679,0.00907 0.46109,0.01271c0.20513,0.00545 0.40844,0.01271 0.61357,0.01997c0.14885,0.00363 0.29771,0.00907 0.44656,0.01452c0.21239,0.00726 0.42478,0.01634 0.63717,0.02542c0.13978,0.00726 0.27955,0.01271 0.41751,0.01815c0.23417,0.01089 0.46653,0.02178 0.7007,0.03449c0.11618,0.00726 0.23236,0.01271 0.34853,0.01815c0.34853,0.01815 0.69708,0.03812 1.0438,0.05991c1.16724,0.07261 2.32903,0.15974 3.48356,0.26503c3.46178,0.31404 6.85639,0.7715 10.12574,1.36692c1.00205,0.18153 1.99683,0.3794 2.98435,0.58816c2.74474,0.58271 5.43137,1.26889 8.01636,2.04948c2.22738,0.67166 4.42025,1.42683 6.54597,2.25097c0.38666,0.15067 0.7715,0.30315 1.15272,0.45745c0.38122,0.1543 0.76061,0.31042 1.13819,0.47016c0.10892,0.04538 0.21602,0.09258 0.32494,0.13796h0.00363l0.23417,0.10165h0.00182l5.63287,2.42524c-0.08895,-0.08714 -0.1779,-0.17608 -0.26685,-0.26503c-0.03994,-0.03994 -0.08169,-0.08169 -0.12344,-0.12163l-0.32131,-0.31586c-0.05083,-0.04901 -0.10165,-0.09985 -0.15248,-0.14885c-0.10165,-0.09985 -0.20694,-0.2015 -0.31042,-0.30134c-0.0472,-0.04538 -0.09621,-0.09258 -0.14341,-0.13796c-0.13614,-0.1307 -0.27411,-0.25959 -0.41026,-0.39029c-0.01452,-0.01271 -0.02723,-0.02723 -0.04175,-0.03994c-0.15248,-0.14341 -0.30315,-0.28682 -0.45564,-0.42841c-0.04538,-0.04356 -0.09258,-0.08532 -0.13796,-0.12889c-0.10892,-0.10165 -0.21783,-0.2015 -0.32675,-0.30315c-0.05265,-0.04901 -0.10529,-0.09803 -0.15974,-0.14704c-0.1071,-0.09803 -0.21421,-0.19787 -0.32313,-0.2959c-0.04901,-0.04356 -0.09803,-0.08895 -0.14704,-0.13434c-0.14704,-0.13252 -0.29408,-0.26685 -0.44293,-0.39937c-0.00907,-0.00907 -0.01634,-0.01634 -0.02542,-0.0236c-0.15612,-0.13978 -0.31404,-0.27955 -0.47198,-0.41933c-0.04901,-0.04175 -0.09621,-0.08532 -0.14523,-0.12707c-0.11074,-0.09985 -0.22328,-0.19787 -0.33583,-0.2959c-0.05446,-0.04901 -0.10892,-0.09621 -0.16519,-0.14523c-0.11255,-0.09803 -0.2251,-0.19423 -0.33764,-0.29226c-0.04901,-0.04356 -0.09985,-0.08532 -0.14885,-0.12889c-0.15974,-0.13796 -0.32131,-0.27593 -0.48287,-0.41389c-3.2748,-2.77923 -6.85457,-5.46042 -10.63947,-7.96916c-4.68892,-3.1096 -9.77538,-6.01227 -15.11599,-8.6263zM315.08641,193.27722c-0.71886,-10.49062 -2.44884,-18.66309 -3.26028,-22.05952c-3.12958,0.93125 -10.28367,3.25665 -18.93356,7.33381c0.0236,0.03812 0.04901,0.07443 0.07261,0.11255c0.07625,0.11618 0.15067,0.23417 0.22691,0.35035c0.11981,0.18516 0.23962,0.37032 0.35943,0.5573c0.07987,0.12344 0.15974,0.2487 0.23781,0.37213c0.11436,0.17972 0.22873,0.36124 0.34309,0.54096c0.07987,0.12525 0.15974,0.25051 0.23781,0.37758c0.11255,0.17972 0.2251,0.35943 0.33764,0.54096c0.07806,0.12525 0.15612,0.25051 0.23236,0.37577c0.11436,0.18516 0.22873,0.37213 0.34128,0.5573l0.21783,0.35943c0.12344,0.2015 0.24325,0.40482 0.36488,0.60631c0.06172,0.10347 0.12344,0.20513 0.18516,0.3086c0.17245,0.29045 0.34309,0.57908 0.51191,0.86953c0.01089,0.01997 0.02178,0.03812 0.03267,0.05627c0.17608,0.30134 0.35035,0.60268 0.52281,0.90402l0.17972,0.31586c0.11436,0.2015 0.22873,0.40118 0.34128,0.60268l0.20694,0.37032c0.10347,0.18334 0.20513,0.36669 0.30679,0.55003c0.07261,0.12889 0.14523,0.25959 0.21602,0.39029c0.09803,0.1779 0.19423,0.35398 0.29045,0.53188c0.07261,0.13252 0.14523,0.26503 0.21602,0.39755l0.28319,0.52825c0.0708,0.1307 0.14159,0.26322 0.21057,0.39573c0.0944,0.18153 0.18879,0.36124 0.28319,0.54096c0.06716,0.12707 0.13434,0.25414 0.19968,0.38122l0.29953,0.58271c0.05627,0.11255 0.11436,0.2251 0.17245,0.33764c0.13796,0.2723 0.27593,0.54641 0.41207,0.8187c0.01452,0.03086 0.03086,0.06354 0.0472,0.0944c1.43409,2.88088 2.73929,5.78536 3.90108,8.67531c0.10529,0.26322 0.20876,0.52462 0.31223,0.78784c0.20694,0.52462 0.40844,1.04924 0.6045,1.57205c0.19787,0.52462 0.38847,1.04743 0.57545,1.56842c0.07987,0.2251 0.15974,0.4502 0.23962,0.6771c1.18721,3.39098 2.18744,6.80737 2.97528,10.16567c0.75335,3.20945 1.32698,6.43524 1.7082,9.59386l0.00182,0.00363l0.03086,0.25414v0.00182l0.71523,6.09033c0.01815,-0.06898 0.03631,-0.13614 0.05446,-0.20513c0.01271,-0.04538 0.0236,-0.09076 0.03631,-0.13614c0.07987,-0.30315 0.15793,-0.60812 0.23599,-0.91491c0.01634,-0.06898 0.03449,-0.13614 0.05083,-0.20513c0.07806,-0.31223 0.15612,-0.62446 0.23054,-0.93851c0.00182,-0.01089 0.00545,-0.02178 0.00726,-0.03267c0.07261,-0.30497 0.14341,-0.61176 0.21421,-0.92036c0.01634,-0.06716 0.03086,-0.13614 0.0472,-0.20513c0.0708,-0.3086 0.13978,-0.61901 0.20694,-0.92943c0.01271,-0.05627 0.0236,-0.11255 0.03631,-0.16883c0.06172,-0.28137 0.12163,-0.56637 0.17972,-0.84956c0.01271,-0.05446 0.0236,-0.10892 0.03449,-0.16338c0.06354,-0.31223 0.12707,-0.62446 0.18698,-0.93669c0.01452,-0.07261 0.02905,-0.14704 0.04356,-0.22147c0.05991,-0.31042 0.11981,-0.62446 0.17608,-0.93669l0.00545,-0.02723c0.19242,-1.05469 0.37032,-2.1239 0.53188,-3.20582c0.44656,-2.97164 0.78058,-6.03406 0.99478,-9.14184c0.01997,-0.28319 0.03812,-0.56637 0.05627,-0.84956c0.15248,-2.4561 0.23236,-4.9594 0.23962,-7.49537c0.00907,-3.26028 -0.09985,-6.57138 -0.32857,-9.9079zM250.68323,194.82566c-5.61835,-0.34673 -11.47269,-0.31768 -17.40508,0.08895c-10.49062,0.71886 -18.66309,2.45066 -22.05225,3.25665c0.93125,3.12958 3.25665,10.28185 7.33562,18.92449c0.03631,-0.02542 0.07443,-0.04901 0.11074,-0.07261c0.11799,-0.07806 0.23781,-0.1543 0.3558,-0.23054c0.18334,-0.11981 0.36851,-0.23781 0.55185,-0.3558l0.37577,-0.23962c0.1779,-0.11255 0.3558,-0.22691 0.53551,-0.33946c0.12707,-0.08169 0.25596,-0.16156 0.38302,-0.24143c0.1779,-0.11074 0.35762,-0.22147 0.53551,-0.3322c0.12707,-0.07987 0.25414,-0.15793 0.38122,-0.23599c0.18334,-0.11255 0.36669,-0.2251 0.55003,-0.33583c0.12163,-0.07261 0.24325,-0.14704 0.36488,-0.22147l0.59905,-0.35943c0.10347,-0.06354 0.20876,-0.12707 0.31404,-0.18879c0.28682,-0.17063 0.57363,-0.33946 0.86227,-0.50829c0.0236,-0.01271 0.04538,-0.02542 0.06716,-0.03812c0.29953,-0.17427 0.59905,-0.34673 0.89858,-0.51918c0.10347,-0.05991 0.20876,-0.11799 0.31223,-0.1779c0.20332,-0.11436 0.40482,-0.22873 0.60631,-0.34309c0.12163,-0.06898 0.24506,-0.13614 0.36669,-0.20513c0.18516,-0.10347 0.36851,-0.20694 0.55367,-0.3086c0.12707,-0.0708 0.25596,-0.14159 0.38484,-0.21239l0.53914,-0.29408c0.1307,-0.0708 0.25959,-0.13978 0.39029,-0.21057c0.18153,-0.09621 0.36124,-0.19242 0.54096,-0.28863c0.12889,-0.06716 0.25596,-0.13614 0.38484,-0.20332c0.18698,-0.09985 0.37213,-0.19605 0.55911,-0.29408c0.11981,-0.06172 0.24143,-0.12525 0.36306,-0.18879c0.20513,-0.1071 0.40844,-0.21057 0.61357,-0.31586c0.10165,-0.05265 0.20513,-0.10529 0.30679,-0.15793c0.30679,-0.15612 0.61357,-0.31042 0.92036,-0.4629c0.52462,-0.2614 1.04924,-0.51736 1.57386,-0.76969c3.67598,-1.76447 7.37919,-3.31655 11.02976,-4.62357c0.4502,-0.16156 0.90402,-0.32131 1.35603,-0.47561c2.26187,-0.77513 4.53461,-1.46676 6.78921,-2.06581c0.9022,-0.23962 1.80078,-0.46471 2.69572,-0.67529c1.2344,-0.28863 2.47062,-0.55185 3.70684,-0.78784c1.02927,-0.19787 2.05855,-0.37577 3.08238,-0.5337c0.20332,-0.03086 0.40844,-0.06172 0.61357,-0.09258c0.73157,-0.1071 1.46132,-0.20513 2.18744,-0.29226l0.00363,-0.00182l0.2487,-0.02905h0.00545l6.09033,-0.71704c-0.06535,-0.01815 -0.1307,-0.03631 -0.19787,-0.05446c-0.04538,-0.01089 -0.09076,-0.0236 -0.13796,-0.03631c-0.30497,-0.07987 -0.60994,-0.15793 -0.91491,-0.23599c-0.06716,-0.01634 -0.13614,-0.03449 -0.20513,-0.05083c-0.31223,-0.07806 -0.62446,-0.15612 -0.93851,-0.23054c-0.01089,-0.00182 -0.02178,-0.00545 -0.03267,-0.00726c-0.30679,-0.07443 -0.61357,-0.14523 -0.92218,-0.21602c-0.06716,-0.01634 -0.13614,-0.03267 -0.20332,-0.0472c-0.31042,-0.0708 -0.62083,-0.13978 -0.93307,-0.20694c-0.05446,-0.01089 -0.11074,-0.02178 -0.16519,-0.03449c-0.285,-0.05991 -0.57182,-0.12163 -0.85864,-0.17972c-0.05265,-0.01089 -0.10347,-0.02178 -0.15612,-0.03267c-0.31404,-0.06354 -0.6281,-0.12525 -0.94396,-0.18698c-0.0708,-0.01271 -0.13978,-0.02723 -0.21057,-0.03994c-0.32131,-0.06172 -0.64261,-0.12344 -0.96574,-0.18153c-0.00182,-0.00182 -0.00363,-0.00182 -0.00545,-0.00182c-3.69595,-0.67348 -7.55709,-1.16542 -11.50174,-1.46494c-0.56456,-0.04175 -1.12912,-0.08169 -1.69549,-0.11618zM330.57636,218.91106c4.62357,-9.44681 7.21037,-17.39057 8.20697,-20.73616c-3.17677,-0.75879 -10.53236,-2.32177 -20.06631,-3.10598c0.00363,0.04538 0.00545,0.08895 0.00726,0.13434c0.00726,0.13796 0.01452,0.27774 0.02178,0.41571l0.03267,0.6644c0.00726,0.14704 0.01452,0.29226 0.01997,0.43931c0.01089,0.21421 0.01815,0.42841 0.02723,0.64261c0.00545,0.14704 0.01089,0.2959 0.01634,0.44293c0.00726,0.21602 0.01452,0.43022 0.02178,0.64443c0.00363,0.14523 0.00907,0.28863 0.01271,0.43386l0.01634,0.6644c0.00363,0.13614 0.00545,0.2723 0.00907,0.40844c0.00545,0.24325 0.00907,0.48831 0.01271,0.73157l0.00545,0.33402c0.00907,0.71159 0.01271,1.42138 0.01089,2.12935c0,0.10529 -0.00182,0.21239 -0.00182,0.31949l-0.00545,0.73701l-0.00545,0.39211l-0.01089,0.66259c-0.00363,0.13796 -0.00545,0.27774 -0.00907,0.41571c-0.00363,0.21421 -0.00907,0.4266 -0.01452,0.63899c-0.00363,0.13978 -0.00726,0.28137 -0.01089,0.42296c-0.00545,0.21239 -0.01271,0.42296 -0.01997,0.63354c-0.00545,0.13978 -0.00907,0.27955 -0.01452,0.41751c-0.00726,0.21602 -0.01634,0.43204 -0.02542,0.64806c-0.00545,0.1307 -0.01089,0.26322 -0.01634,0.39392c-0.01089,0.23417 -0.02178,0.47016 -0.03449,0.70434c-0.00545,0.10892 -0.01089,0.21965 -0.01634,0.33039c-0.01997,0.34309 -0.03812,0.68619 -0.05991,1.02927c-0.19968,3.21127 -0.52099,6.38077 -0.96029,9.46315c-0.19968,1.40141 -0.42296,2.78648 -0.67166,4.14796c-0.68799,3.77946 -1.57568,7.47903 -2.63763,10.99889c-0.60994,2.02588 -1.28886,4.02089 -2.02769,5.96326c-0.41207,1.08192 -0.8423,2.14931 -1.28886,3.19674v0.00363l-0.09621,0.2251c0,0.00363 -0.00182,0.00726 -0.00363,0.01089l-2.42706,5.63469l0.25051,-0.25051c0.22328,-0.22328 0.44293,-0.4502 0.6644,-0.6771c0.04901,-0.04901 0.09621,-0.09985 0.14523,-0.14885c0.22328,-0.23054 0.44656,-0.46471 0.66985,-0.69889c0.00545,-0.00726 0.01271,-0.01271 0.01815,-0.01997c0.21783,-0.23054 0.43567,-0.4629 0.6517,-0.69526l0.14159,-0.15248c0.21602,-0.23417 0.43204,-0.46835 0.64625,-0.70434c0.03812,-0.03994 0.07443,-0.08169 0.11255,-0.12344c0.19605,-0.21602 0.39211,-0.43386 0.58634,-0.6535c0.03449,-0.03994 0.0708,-0.07806 0.10529,-0.11799c0.21239,-0.23962 0.42478,-0.48105 0.63535,-0.7243c0.0472,-0.05446 0.09258,-0.1071 0.13978,-0.16156c0.21602,-0.2487 0.43022,-0.49739 0.64443,-0.74972c0.34673,-0.40844 0.69163,-0.82233 1.03654,-1.24166c2.4089,-2.93171 4.7343,-6.0867 6.93081,-9.39781c3.10779,-4.6871 6.00864,-9.77357 8.62448,-15.11599zM307.37865,244.40693c0.03812,-0.0835 0.07443,-0.16883 0.11255,-0.25414c0.03812,-0.08714 0.07625,-0.17427 0.12344,-0.25959c0.01997,-0.0472 0.03994,-0.09258 0.05991,-0.13978c0.00545,-0.05265 0.01271,-0.10529 0.01815,-0.15793c0.01089,-0.09076 0.02178,-0.17972 0.03086,-0.27048c0.01089,-0.09621 0.01997,-0.19061 0.03086,-0.28682c0.01089,-0.09076 0.01997,-0.18153 0.02905,-0.2723c0.01089,-0.09621 0.01997,-0.19061 0.02905,-0.28682l0.02723,-0.2723c0.00726,-0.0944 0.01634,-0.19061 0.02542,-0.285c0.00907,-0.09258 0.01815,-0.18334 0.02542,-0.27411c0.00726,-0.0944 0.01634,-0.19061 0.0236,-0.285l0.02178,-0.2723c0.00726,-0.09621 0.01452,-0.19061 0.02178,-0.28682c0.00726,-0.09076 0.01271,-0.17972 0.01997,-0.27048c0.00726,-0.09621 0.01271,-0.19061 0.01997,-0.28682c0.00545,-0.09076 0.01271,-0.17972 0.01815,-0.27048c0.00545,-0.09621 0.01271,-0.19242 0.01815,-0.28863c0.00545,-0.09076 0.01089,-0.17972 0.01634,-0.26866c0.00545,-0.09621 0.01089,-0.19423 0.01634,-0.29045c0.00545,-0.08895 0.01089,-0.17608 0.01452,-0.26503c0.00545,-0.09985 0.00907,-0.19787 0.01452,-0.2959c0.00545,-0.08714 0.00907,-0.17245 0.01271,-0.25959c0.00545,-0.09985 0.00907,-0.19968 0.01271,-0.29953l0.01089,-0.25596c0.00363,-0.10165 0.00726,-0.2015 0.01089,-0.30315c0.00363,-0.0835 0.00726,-0.16701 0.00907,-0.25051c0.00363,-0.10347 0.00726,-0.20694 0.00907,-0.31042c0.00182,-0.08169 0.00363,-0.16156 0.00545,-0.24143c0.00182,-0.11074 0.00363,-0.21965 0.00545,-0.33039c0,-0.07261 0.00182,-0.14704 0.00363,-0.21965c0.00182,-0.12344 0.00182,-0.24688 0.00363,-0.37032c0,-0.05991 0.00182,-0.11981 0.00182,-0.17972c0.00182,-0.18334 0.00182,-0.36488 0.00182,-0.54822c0,-0.18334 0,-0.36488 -0.00182,-0.54822c0,-0.05991 -0.00182,-0.11981 -0.00182,-0.17972c0,-0.12344 -0.00182,-0.24688 -0.00363,-0.37032c0,-0.07261 -0.00182,-0.14704 -0.00363,-0.21965c-0.00182,-0.10892 -0.00363,-0.21965 -0.00545,-0.33039l-0.00545,-0.23962c-0.00363,-0.10529 -0.00545,-0.20876 -0.00907,-0.31223c-0.00363,-0.0835 -0.00545,-0.16701 -0.00907,-0.25051c-0.00363,-0.10165 -0.00726,-0.2015 -0.01089,-0.30315c-0.00363,-0.0835 -0.00726,-0.16883 -0.01089,-0.25414c-0.00363,-0.09985 -0.00907,-0.19968 -0.01271,-0.29953c-0.00363,-0.08714 -0.00907,-0.17245 -0.01271,-0.25959c-0.00545,-0.09803 -0.00907,-0.19787 -0.01452,-0.2959c-0.00545,-0.08714 -0.00907,-0.17608 -0.01452,-0.26322c-0.00545,-0.09803 -0.01089,-0.19423 -0.01634,-0.29226l-0.01634,-0.26685c-0.00545,-0.09621 -0.01089,-0.19242 -0.01815,-0.28863c-0.00545,-0.08895 -0.01271,-0.17972 -0.01815,-0.26866c-0.00545,-0.09621 -0.01271,-0.19242 -0.01997,-0.28863c-0.00545,-0.08895 -0.01271,-0.17972 -0.01997,-0.26866l-0.02178,-0.28863c-0.00726,-0.09076 -0.01452,-0.17972 -0.02178,-0.27048c-0.00726,-0.0944 -0.01452,-0.19061 -0.0236,-0.28682c-0.00726,-0.09076 -0.01452,-0.18153 -0.0236,-0.2723c-0.00907,-0.09621 -0.01815,-0.19061 -0.02723,-0.28682c-0.00726,-0.09076 -0.01634,-0.17972 -0.02542,-0.27048c-0.00907,-0.09621 -0.01997,-0.19242 -0.02905,-0.28863c-0.00907,-0.09076 -0.01815,-0.17972 -0.02723,-0.27048c-0.01089,-0.09621 -0.01997,-0.19242 -0.03086,-0.28863c-0.00907,-0.08895 -0.01815,-0.17972 -0.02905,-0.26866c-0.00545,-0.05265 -0.01271,-0.1071 -0.01815,-0.15974c-0.01997,-0.0472 -0.04175,-0.0944 -0.06172,-0.14159c-0.03631,-0.08532 -0.07443,-0.17245 -0.11255,-0.25777l-0.11436,-0.25596l-0.11436,-0.25596c-0.03812,-0.08714 -0.07806,-0.17245 -0.11618,-0.25777c-0.03812,-0.0835 -0.07625,-0.16883 -0.11436,-0.25233c-0.03812,-0.08532 -0.07806,-0.17245 -0.11799,-0.25777c-0.03812,-0.0835 -0.07806,-0.16701 -0.11618,-0.25051c-0.03994,-0.08714 -0.08169,-0.17245 -0.12163,-0.25959c-0.03812,-0.0835 -0.07806,-0.16519 -0.11618,-0.24688l-0.12525,-0.2614c-0.03812,-0.07987 -0.07806,-0.16156 -0.11618,-0.24143c-0.04175,-0.08895 -0.08532,-0.17608 -0.12889,-0.26503c-0.03994,-0.07806 -0.07806,-0.15793 -0.11618,-0.23599c-0.04538,-0.08895 -0.08895,-0.17972 -0.13434,-0.26866l-0.11436,-0.22873c-0.04538,-0.09076 -0.09258,-0.18153 -0.13796,-0.2723c-0.03812,-0.07625 -0.07625,-0.15067 -0.11436,-0.2251c-0.0472,-0.09258 -0.0944,-0.18334 -0.14159,-0.27593c-0.03812,-0.07261 -0.07443,-0.14523 -0.11255,-0.21783c-0.04901,-0.0944 -0.09985,-0.18879 -0.14885,-0.28319l-0.10892,-0.20694c-0.05265,-0.09803 -0.10347,-0.19605 -0.15612,-0.29226c-0.03449,-0.06535 -0.0708,-0.1307 -0.10529,-0.19605c-0.05446,-0.10165 -0.10892,-0.2015 -0.16338,-0.30134c-0.03449,-0.06172 -0.06716,-0.12344 -0.10165,-0.18516c-0.05809,-0.10529 -0.11618,-0.20876 -0.17427,-0.31404l-0.09258,-0.16883c-0.06354,-0.11436 -0.12889,-0.22691 -0.19242,-0.34128c-0.02542,-0.0472 -0.05265,-0.0944 -0.07806,-0.13978c-0.09076,-0.15974 -0.18153,-0.31949 -0.2723,-0.47742c-0.09076,-0.15793 -0.18334,-0.31586 -0.27593,-0.4738c-0.03267,-0.05446 -0.06354,-0.1071 -0.09621,-0.16156l-0.18516,-0.31042c-0.03812,-0.06354 -0.07806,-0.12889 -0.11618,-0.19242c-0.05627,-0.0944 -0.11255,-0.18698 -0.16883,-0.27955c-0.04175,-0.06898 -0.0835,-0.13614 -0.12525,-0.20513l-0.16338,-0.26685c-0.04356,-0.0708 -0.08714,-0.13978 -0.1307,-0.21057c-0.05446,-0.08714 -0.1071,-0.17245 -0.16156,-0.25959c-0.04538,-0.0708 -0.09076,-0.14341 -0.13614,-0.21421c-0.05446,-0.0835 -0.1071,-0.16883 -0.16156,-0.25414c-0.0472,-0.07261 -0.09258,-0.14523 -0.13978,-0.21783c-0.05446,-0.0835 -0.1071,-0.16701 -0.16156,-0.25051c-0.04901,-0.07261 -0.09621,-0.14523 -0.14341,-0.21783c-0.05265,-0.0835 -0.1071,-0.16519 -0.16156,-0.2487c-0.04901,-0.07261 -0.09621,-0.14523 -0.14523,-0.21783c-0.05446,-0.08169 -0.10892,-0.16519 -0.16338,-0.24688l-0.14704,-0.21783c-0.05446,-0.08169 -0.10892,-0.16338 -0.16519,-0.24506c-0.04901,-0.07261 -0.09985,-0.14523 -0.14885,-0.21783c-0.05627,-0.07987 -0.11074,-0.16156 -0.16701,-0.24325c-0.05083,-0.07261 -0.09985,-0.14523 -0.15067,-0.21783c-0.05627,-0.08169 -0.11255,-0.16338 -0.16883,-0.24325l-0.15248,-0.21783c-0.05627,-0.07987 -0.11436,-0.16156 -0.17063,-0.24143c-0.05083,-0.07261 -0.10347,-0.14341 -0.1543,-0.21602c-0.05809,-0.07987 -0.11436,-0.15974 -0.17245,-0.23962l-0.15793,-0.21783c-0.05627,-0.07987 -0.11436,-0.15793 -0.17245,-0.23781c-0.05265,-0.07261 -0.10529,-0.14341 -0.15793,-0.21602c-0.03267,-0.04356 -0.06354,-0.08714 -0.09621,-0.1307c-0.03994,-0.02905 -0.08169,-0.05991 -0.12163,-0.08895c-0.07625,-0.05627 -0.1543,-0.11255 -0.23054,-0.16883c-0.07443,-0.05446 -0.15067,-0.10892 -0.2251,-0.16338c-0.07443,-0.05627 -0.15067,-0.11074 -0.22691,-0.16519c-0.07625,-0.05446 -0.1543,-0.11074 -0.23054,-0.16519c-0.07625,-0.05265 -0.15067,-0.1071 -0.2251,-0.15974c-0.07987,-0.05627 -0.15793,-0.11255 -0.23599,-0.16701c-0.07443,-0.05265 -0.14704,-0.10347 -0.22147,-0.15612c-0.07987,-0.05627 -0.15974,-0.11074 -0.23962,-0.16701c-0.07261,-0.05083 -0.14704,-0.10165 -0.21965,-0.15248c-0.08169,-0.05627 -0.16156,-0.11074 -0.24325,-0.16701c-0.07261,-0.04901 -0.14523,-0.09985 -0.21783,-0.14885c-0.08169,-0.05627 -0.16519,-0.11074 -0.24688,-0.16701c-0.07261,-0.04901 -0.14341,-0.09803 -0.21602,-0.14523c-0.0835,-0.05627 -0.16701,-0.11074 -0.25051,-0.16701l-0.21239,-0.14159c-0.08532,-0.05627 -0.17063,-0.11074 -0.25596,-0.16701c-0.06898,-0.04538 -0.13978,-0.09258 -0.21057,-0.13796c-0.08714,-0.05627 -0.17245,-0.11074 -0.25959,-0.16701c-0.0708,-0.04538 -0.13978,-0.09076 -0.20876,-0.13434c-0.08714,-0.05627 -0.17608,-0.11255 -0.26503,-0.16883c-0.06716,-0.04356 -0.13614,-0.08714 -0.20332,-0.12889l-0.2723,-0.16883c-0.06535,-0.04175 -0.13252,-0.0835 -0.19787,-0.12344c-0.09258,-0.05809 -0.18698,-0.11618 -0.27955,-0.17245c-0.06535,-0.03994 -0.12889,-0.07987 -0.19242,-0.11799c-0.09621,-0.05991 -0.19242,-0.11799 -0.29045,-0.17608c-0.05991,-0.03631 -0.12163,-0.07261 -0.18153,-0.10892l-0.32131,-0.19061c-0.05083,-0.03086 -0.10165,-0.06172 -0.15248,-0.09076c-0.15793,-0.09258 -0.31586,-0.18516 -0.4738,-0.27593c-0.15793,-0.09076 -0.31586,-0.18153 -0.47561,-0.2723c-0.05083,-0.03086 -0.10347,-0.05991 -0.15612,-0.08895c-0.1071,-0.06172 -0.21421,-0.12163 -0.32131,-0.18153c-0.06535,-0.03449 -0.12889,-0.0708 -0.19242,-0.10529c-0.09621,-0.05265 -0.19423,-0.1071 -0.29045,-0.15974c-0.06898,-0.03812 -0.13796,-0.07443 -0.20694,-0.11255c-0.09258,-0.05083 -0.18516,-0.09985 -0.27774,-0.15067c-0.07261,-0.03994 -0.14341,-0.07806 -0.21602,-0.11618c-0.09076,-0.04901 -0.18153,-0.09621 -0.2723,-0.14523c-0.07261,-0.03812 -0.14704,-0.07806 -0.22147,-0.11618c-0.09076,-0.0472 -0.17972,-0.0944 -0.27048,-0.14159c-0.07443,-0.03812 -0.15067,-0.07806 -0.2251,-0.11618c-0.08895,-0.04538 -0.17972,-0.09258 -0.26866,-0.13796c-0.07625,-0.03812 -0.15248,-0.07806 -0.22873,-0.11618c-0.08895,-0.04538 -0.17972,-0.09076 -0.26866,-0.13614l-0.22873,-0.11436c-0.09076,-0.04538 -0.17972,-0.08895 -0.27048,-0.13434c-0.07806,-0.03631 -0.1543,-0.07443 -0.23236,-0.11255c-0.09076,-0.04538 -0.17972,-0.08895 -0.27048,-0.13252c-0.07806,-0.03812 -0.15612,-0.07443 -0.23417,-0.11255c-0.08895,-0.04175 -0.17972,-0.08532 -0.27048,-0.12889c-0.07806,-0.03631 -0.15612,-0.07443 -0.23417,-0.11074c-0.09076,-0.04356 -0.18153,-0.08714 -0.2723,-0.12889c-0.07806,-0.03631 -0.15793,-0.07261 -0.23599,-0.10892l-0.2723,-0.12525c-0.07987,-0.03449 -0.15793,-0.0708 -0.23781,-0.1071c-0.09076,-0.04175 -0.18334,-0.08169 -0.27411,-0.12344c-0.07987,-0.03449 -0.15793,-0.0708 -0.23781,-0.10529c-0.09258,-0.03994 -0.18334,-0.08169 -0.27593,-0.12163c-0.07806,-0.03631 -0.15793,-0.0708 -0.23781,-0.10529c-0.05083,-0.0236 -0.10165,-0.04538 -0.15248,-0.06716c-0.05265,-0.00545 -0.1071,-0.01271 -0.15974,-0.01815c-0.09076,-0.00907 -0.17972,-0.01997 -0.26866,-0.02905c-0.09803,-0.01089 -0.19423,-0.01997 -0.29226,-0.03086l-0.26685,-0.02723c-0.09803,-0.00907 -0.19605,-0.01997 -0.29408,-0.02905c-0.08895,-0.00907 -0.17608,-0.01634 -0.26503,-0.02542l-0.29408,-0.02723c-0.08895,-0.00726 -0.17608,-0.01634 -0.26503,-0.0236c-0.09803,-0.00907 -0.19605,-0.01634 -0.29408,-0.02542c-0.08714,-0.00726 -0.17608,-0.01452 -0.26322,-0.02178c-0.09803,-0.00907 -0.19787,-0.01634 -0.2959,-0.0236c-0.08714,-0.00726 -0.17427,-0.01271 -0.2614,-0.01997c-0.09985,-0.00726 -0.19787,-0.01452 -0.29771,-0.02178c-0.08714,-0.00726 -0.17245,-0.01271 -0.25959,-0.01815c-0.09803,-0.00545 -0.19787,-0.01271 -0.29771,-0.01815c-0.08714,-0.00545 -0.17427,-0.01089 -0.25959,-0.01634c-0.10165,-0.00545 -0.2015,-0.01089 -0.30134,-0.01634c-0.08532,-0.00545 -0.17063,-0.01089 -0.25596,-0.01452c-0.09985,-0.00545 -0.2015,-0.00907 -0.30315,-0.01452c-0.08532,-0.00545 -0.16883,-0.00907 -0.25233,-0.01271c-0.10165,-0.00545 -0.20332,-0.00907 -0.30497,-0.01271l-0.25051,-0.01089l-0.31042,-0.01089c-0.08169,-0.00182 -0.16156,-0.00545 -0.24325,-0.00726c-0.10529,-0.00363 -0.21057,-0.00726 -0.31586,-0.00907c-0.07987,-0.00182 -0.15974,-0.00363 -0.23781,-0.00545c-0.11074,-0.00182 -0.21965,-0.00363 -0.33039,-0.00545c-0.07261,-0.00182 -0.14704,-0.00182 -0.21965,-0.00363c-0.12344,-0.00182 -0.24688,-0.00182 -0.37032,-0.00363c-0.05991,0 -0.11981,-0.00182 -0.17972,-0.00182c-0.18334,-0.00182 -0.36488,-0.00182 -0.54822,-0.00182c-0.18334,0 -0.36488,0 -0.54822,0.00182c-0.05991,0 -0.11981,0.00182 -0.17972,0.00182c-0.12344,0 -0.24688,0.00182 -0.37032,0.00363c-0.07261,0 -0.14704,0.00182 -0.21965,0.00363c-0.11074,0.00182 -0.21965,0.00363 -0.33039,0.00545c-0.07987,0.00182 -0.15793,0.00363 -0.23781,0.00545c-0.10529,0.00363 -0.21057,0.00545 -0.31586,0.00907c-0.07987,0.00182 -0.16156,0.00545 -0.24325,0.00726c-0.10165,0.00363 -0.20513,0.00726 -0.3086,0.01089l-0.25051,0.01089c-0.10165,0.00363 -0.20332,0.00907 -0.30497,0.01271c-0.0835,0.00363 -0.16883,0.00907 -0.25233,0.01271c-0.10165,0.00545 -0.2015,0.00907 -0.30315,0.01452c-0.08532,0.00545 -0.17063,0.00907 -0.25596,0.01452l-0.29953,0.01634c-0.08714,0.00545 -0.17245,0.01089 -0.25959,0.01634c-0.09985,0.00545 -0.19787,0.01089 -0.29771,0.01815c-0.08714,0.00545 -0.17427,0.01271 -0.2614,0.01815c-0.09803,0.00726 -0.19787,0.01452 -0.2959,0.02178c-0.08895,0.00726 -0.17608,0.01271 -0.26322,0.01997c-0.09985,0.00907 -0.19787,0.01634 -0.2959,0.0236c-0.08895,0.00726 -0.17608,0.01452 -0.26503,0.02178c-0.09803,0.00907 -0.19605,0.01634 -0.29408,0.02542c-0.08714,0.00726 -0.17608,0.01634 -0.26503,0.0236c-0.09803,0.00907 -0.19423,0.01815 -0.29226,0.02723c-0.08895,0.00726 -0.1779,0.01634 -0.26685,0.02542c-0.09803,0.00907 -0.19423,0.01997 -0.29226,0.02905l-0.26685,0.02723c-0.09621,0.00907 -0.19423,0.01997 -0.29045,0.03086c-0.09076,0.00907 -0.17972,0.01815 -0.26866,0.02905c-0.05265,0.00545 -0.1071,0.01271 -0.15974,0.01815c-0.0472,0.02178 -0.09621,0.04175 -0.14523,0.06354l-0.25051,0.10892c-0.08714,0.03812 -0.17608,0.07806 -0.26322,0.11618c-0.0835,0.03812 -0.16701,0.07443 -0.25051,0.11255c-0.08714,0.03994 -0.17427,0.07806 -0.2614,0.11799l-0.25051,0.11436c-0.08714,0.03994 -0.17245,0.07987 -0.25959,0.11981c-0.0835,0.03812 -0.16519,0.07625 -0.2487,0.11436c-0.08714,0.03994 -0.17245,0.08169 -0.25959,0.12163c-0.08169,0.03812 -0.16519,0.07625 -0.24688,0.11618c-0.08714,0.03994 -0.17427,0.08169 -0.25959,0.12344c-0.08169,0.03994 -0.16338,0.07806 -0.24506,0.11799c-0.08714,0.04175 -0.17427,0.0835 -0.25959,0.12525c-0.08169,0.03812 -0.16338,0.07806 -0.24325,0.11799c-0.08714,0.04175 -0.17245,0.08532 -0.25959,0.12889l-0.23962,0.11981c-0.08714,0.04356 -0.17427,0.08895 -0.2614,0.13252c-0.07987,0.03994 -0.15793,0.07987 -0.23599,0.11981c-0.08895,0.04356 -0.17608,0.08895 -0.26322,0.13434c-0.07625,0.03994 -0.1543,0.07987 -0.23054,0.11981c-0.08895,0.04538 -0.17608,0.09076 -0.26503,0.13796c-0.07625,0.03994 -0.15248,0.07987 -0.22691,0.11981c-0.08895,0.04901 -0.1779,0.09621 -0.26685,0.14341c-0.07443,0.03994 -0.14885,0.07806 -0.22147,0.11799c-0.09076,0.04901 -0.18153,0.09985 -0.2723,0.14885c-0.0708,0.03994 -0.14159,0.07806 -0.21239,0.11618c-0.0944,0.05265 -0.19061,0.10529 -0.285,0.15793l-0.19605,0.10892c-0.10529,0.05991 -0.20876,0.11799 -0.31404,0.1779l-0.16338,0.09258c-0.15974,0.09076 -0.31768,0.18153 -0.47561,0.2723c-0.15793,0.09076 -0.31586,0.18334 -0.4738,0.27593c-0.05446,0.03086 -0.1071,0.06354 -0.16156,0.0944c-0.10347,0.06172 -0.20876,0.12344 -0.31223,0.18516c-0.06354,0.03812 -0.12889,0.07806 -0.19242,0.11618c-0.0944,0.05627 -0.18698,0.11255 -0.27955,0.16883c-0.06898,0.04356 -0.13796,0.08532 -0.20876,0.12889c-0.08714,0.05265 -0.17427,0.10529 -0.2614,0.15974l-0.21783,0.13614c-0.0835,0.05083 -0.16701,0.10347 -0.25051,0.15612c-0.07443,0.04538 -0.14704,0.09258 -0.22147,0.13978c-0.08169,0.05083 -0.16519,0.10347 -0.24688,0.15612c-0.07443,0.0472 -0.14704,0.0944 -0.22147,0.14159c-0.0835,0.05265 -0.16519,0.10529 -0.24688,0.15793c-0.07443,0.04901 -0.14885,0.09621 -0.22328,0.14523c-0.08169,0.05446 -0.16156,0.1071 -0.24325,0.15974c-0.07443,0.04901 -0.15067,0.09985 -0.2251,0.14885c-0.07987,0.05265 -0.15974,0.1071 -0.23962,0.15974c-0.07443,0.04901 -0.15067,0.09985 -0.2251,0.15067c-0.07987,0.05265 -0.15793,0.10529 -0.23781,0.15974c-0.07443,0.05083 -0.15067,0.10347 -0.2251,0.1543c-0.07806,0.05446 -0.15793,0.1071 -0.23599,0.16156c-0.07443,0.05083 -0.15067,0.10347 -0.2251,0.15612l-0.23417,0.16338c-0.07625,0.05265 -0.15067,0.10529 -0.2251,0.15793c-0.07806,0.05446 -0.15612,0.11074 -0.23417,0.16519c-0.07443,0.05446 -0.14885,0.1071 -0.22328,0.15974c-0.07806,0.05446 -0.15612,0.11074 -0.23417,0.16701c-0.07443,0.05446 -0.14704,0.1071 -0.22147,0.16156c-0.07806,0.05627 -0.15612,0.11255 -0.23236,0.16883c-0.07443,0.05446 -0.14704,0.10892 -0.22147,0.16338c-0.04356,0.03267 -0.08532,0.06354 -0.12707,0.0944c-0.02905,0.04175 -0.05991,0.08169 -0.09076,0.12344c-0.05627,0.07625 -0.11074,0.15248 -0.16701,0.22873c-0.05446,0.07625 -0.11074,0.15067 -0.16519,0.22691c-0.05446,0.07625 -0.10892,0.15067 -0.16338,0.22691c-0.05446,0.07625 -0.11074,0.1543 -0.16519,0.23054c-0.05446,0.07443 -0.1071,0.14885 -0.16156,0.2251c-0.05627,0.07806 -0.11074,0.1543 -0.16519,0.23236c-0.05265,0.07443 -0.10529,0.15067 -0.15793,0.2251l-0.16338,0.23417c-0.05265,0.07443 -0.10347,0.15067 -0.15612,0.2251c-0.05446,0.07987 -0.10892,0.15793 -0.16338,0.23781c-0.05265,0.07443 -0.10347,0.15067 -0.1543,0.2251c-0.05446,0.07806 -0.1071,0.15793 -0.16156,0.23781c-0.05083,0.07625 -0.09985,0.15067 -0.15067,0.2251c-0.05265,0.08169 -0.1071,0.16156 -0.15974,0.24143c-0.04901,0.07625 -0.09985,0.15067 -0.14885,0.2251c-0.05265,0.07987 -0.10529,0.16156 -0.15793,0.24143c-0.04901,0.07625 -0.09803,0.15067 -0.14704,0.2251c-0.05083,0.07987 -0.10347,0.16156 -0.15612,0.24325c-0.0472,0.07443 -0.09621,0.14885 -0.14341,0.22328c-0.05265,0.08169 -0.10347,0.16519 -0.15612,0.24688c-0.04538,0.07443 -0.09258,0.14885 -0.13978,0.22328c-0.05083,0.0835 -0.10347,0.16519 -0.1543,0.2487c-0.04538,0.07261 -0.09258,0.14704 -0.13796,0.22147c-0.05265,0.08532 -0.10347,0.16883 -0.15612,0.25414c-0.04356,0.07261 -0.08895,0.14341 -0.13252,0.21602c-0.05446,0.09076 -0.10892,0.17972 -0.16338,0.27048c-0.03994,0.06716 -0.08169,0.13434 -0.12163,0.2015c-0.05991,0.10165 -0.11799,0.2015 -0.1779,0.30134c-0.03449,0.05809 -0.06716,0.11436 -0.10165,0.17245c-0.09258,0.15612 -0.18516,0.31404 -0.27593,0.47198c-0.09076,0.15793 -0.18153,0.31586 -0.2723,0.47561c-0.03449,0.06172 -0.06716,0.12163 -0.10165,0.18153c-0.05627,0.09985 -0.11074,0.19787 -0.16701,0.29771c-0.04175,0.07261 -0.08169,0.14523 -0.12163,0.21783c-0.04901,0.08714 -0.09621,0.17608 -0.14523,0.26322c-0.04356,0.07625 -0.08532,0.1543 -0.12707,0.23236c-0.04538,0.0835 -0.09076,0.16883 -0.13614,0.25233c-0.04356,0.07987 -0.08532,0.16156 -0.12889,0.24143c-0.04356,0.0835 -0.08714,0.16519 -0.1307,0.24688c-0.04356,0.08169 -0.08532,0.16519 -0.12889,0.24688c-0.04356,0.08169 -0.08714,0.16338 -0.12889,0.24506c-0.04356,0.0835 -0.08532,0.16519 -0.12889,0.2487c-0.04356,0.08169 -0.08532,0.16338 -0.12707,0.24506c-0.04356,0.0835 -0.08532,0.16701 -0.12707,0.25051c-0.04175,0.08169 -0.0835,0.16519 -0.12525,0.24688l-0.12525,0.25051c-0.04175,0.0835 -0.08169,0.16519 -0.12344,0.2487c-0.04175,0.0835 -0.08169,0.16701 -0.12344,0.25051c-0.03994,0.0835 -0.08169,0.16701 -0.12163,0.25051c-0.04175,0.0835 -0.08169,0.16883 -0.12163,0.25233c-0.04175,0.0835 -0.08169,0.16883 -0.12163,0.25233c-0.03812,0.08532 -0.07806,0.16883 -0.11799,0.25233l-0.11981,0.25596c-0.03994,0.08169 -0.07806,0.16519 -0.11618,0.2487c-0.03994,0.08532 -0.07987,0.17245 -0.11981,0.25959c-0.03631,0.0835 -0.07443,0.16519 -0.11255,0.2487c-0.03812,0.08714 -0.07806,0.17608 -0.11799,0.26322c-0.03631,0.08169 -0.07443,0.16338 -0.11074,0.24688c-0.03994,0.08895 -0.07806,0.1779 -0.11799,0.26685c-0.03631,0.08169 -0.07261,0.16519 -0.10892,0.24688c-0.01997,0.04901 -0.04175,0.09803 -0.06354,0.14704c-0.00545,0.05446 -0.01271,0.1071 -0.01815,0.16156c-0.00907,0.08895 -0.01997,0.17608 -0.02905,0.26503c-0.01089,0.09803 -0.01997,0.19423 -0.03086,0.29226c-0.00907,0.09076 -0.01815,0.17972 -0.02723,0.26866c-0.00907,0.09621 -0.01997,0.19423 -0.02905,0.29045c-0.00907,0.08895 -0.01634,0.17972 -0.02542,0.26866c-0.00907,0.09803 -0.01815,0.19423 -0.02723,0.29045c-0.00726,0.08895 -0.01634,0.17972 -0.0236,0.26866c-0.00907,0.09621 -0.01815,0.19423 -0.02542,0.29045c-0.00726,0.09076 -0.01452,0.17972 -0.02178,0.26866c-0.00726,0.09803 -0.01452,0.19423 -0.02178,0.29045c-0.00726,0.08895 -0.01271,0.17972 -0.01997,0.26866c-0.00726,0.09621 -0.01271,0.19242 -0.01997,0.28863c-0.00545,0.08895 -0.01271,0.17972 -0.01815,0.26866c-0.00545,0.09803 -0.01271,0.19423 -0.01815,0.29045l-0.01634,0.26685c-0.00545,0.09803 -0.01089,0.19423 -0.01634,0.29226c-0.00545,0.08895 -0.01089,0.17608 -0.01452,0.26503c-0.00545,0.09803 -0.00907,0.19605 -0.01452,0.29408c-0.00545,0.08532 -0.00907,0.17245 -0.01271,0.25959c-0.00545,0.09985 -0.00907,0.19968 -0.01271,0.29953c-0.00363,0.0835 -0.00726,0.16883 -0.01089,0.25414l-0.01089,0.30497c-0.00182,0.08169 -0.00545,0.16519 -0.00726,0.24688c-0.00363,0.10529 -0.00726,0.20876 -0.00907,0.31404c-0.00182,0.07806 -0.00363,0.15793 -0.00545,0.23781c-0.00182,0.11074 -0.00363,0.21965 -0.00545,0.33039c0,0.07261 -0.00182,0.14704 -0.00363,0.21965c-0.00182,0.12344 -0.00182,0.24688 -0.00363,0.37032c0,0.05991 -0.00182,0.11981 -0.00182,0.17972c-0.00182,0.18334 -0.00182,0.36669 -0.00182,0.54822c0,0.18153 0,0.36488 0.00182,0.54822c0,0.05809 0.00182,0.11799 0.00182,0.1779c0,0.12344 0.00182,0.24688 0.00363,0.37032c0,0.07261 0.00182,0.14704 0.00363,0.21965c0.00182,0.10892 0.00363,0.21965 0.00545,0.33039c0.00182,0.07806 0.00363,0.15793 0.00545,0.23781c0.00363,0.10529 0.00545,0.20876 0.00907,0.31404c0.00182,0.08169 0.00545,0.16519 0.00726,0.24688l0.01089,0.30497c0.00363,0.08532 0.00726,0.16883 0.01089,0.25414c0.00363,0.09985 0.00907,0.19968 0.01271,0.29953c0.00363,0.08714 0.00907,0.17245 0.01271,0.25959c0.00545,0.09803 0.00907,0.19605 0.01452,0.29408c0.00545,0.08895 0.00907,0.17608 0.01452,0.26503c0.00545,0.09803 0.01089,0.19423 0.01634,0.29226l0.01634,0.26685c0.00545,0.09803 0.01089,0.19423 0.01815,0.29045c0.00545,0.08895 0.01271,0.17972 0.01815,0.26866c0.00545,0.09621 0.01271,0.19242 0.01997,0.28863c0.00545,0.08895 0.01271,0.17972 0.01997,0.26866c0.00726,0.09803 0.01452,0.19423 0.02178,0.29045c0.00726,0.08895 0.01452,0.17972 0.02178,0.26866c0.00907,0.09803 0.01634,0.19423 0.02542,0.29045c0.00726,0.08895 0.01634,0.17972 0.0236,0.26866l0.02723,0.28863c0.00726,0.08895 0.01634,0.17972 0.02542,0.26866c0.00907,0.09803 0.01997,0.19423 0.02905,0.29045c0.00907,0.08895 0.01815,0.17972 0.02723,0.26866c0.01089,0.09621 0.01997,0.19423 0.03086,0.29045c0.00907,0.08895 0.01997,0.1779 0.02905,0.26685c0.00545,0.05446 0.01271,0.1071 0.01815,0.16156c0.02178,0.04901 0.04356,0.09985 0.06535,0.14885c0.03449,0.08169 0.0708,0.16338 0.1071,0.24506c0.03994,0.08895 0.07987,0.17972 0.11981,0.26866l0.10892,0.24506c0.03994,0.08895 0.08169,0.1779 0.12163,0.26685c0.03631,0.07987 0.07443,0.16156 0.11074,0.24325c0.03994,0.08714 0.07987,0.17608 0.12163,0.26503c0.03812,0.08169 0.07443,0.16156 0.11255,0.24325c0.04175,0.08895 0.0835,0.17608 0.12525,0.26503c0.03812,0.08169 0.07625,0.16156 0.11436,0.24143c0.04175,0.08895 0.08532,0.1779 0.12707,0.26685c0.03812,0.07987 0.07625,0.15793 0.11436,0.23781c0.04175,0.08895 0.08532,0.1779 0.12889,0.26685c0.03994,0.07806 0.07806,0.15793 0.11618,0.23599c0.04356,0.08895 0.08895,0.1779 0.13252,0.26685c0.03812,0.07806 0.07806,0.1543 0.11618,0.23236c0.04538,0.08895 0.09076,0.17972 0.13614,0.26866c0.03994,0.07443 0.07806,0.15067 0.11618,0.22691c0.0472,0.09076 0.09258,0.17972 0.13978,0.27048c0.03994,0.07443 0.07806,0.14885 0.11618,0.22328c0.0472,0.09258 0.09621,0.18334 0.14341,0.27411l0.11436,0.21783c0.04901,0.0944 0.09985,0.18698 0.14885,0.27955c0.03812,0.06898 0.07443,0.13978 0.11255,0.20876c0.05083,0.0944 0.10347,0.19061 0.1543,0.285l0.10892,0.2015l0.16338,0.29408c0.03449,0.06354 0.06898,0.12707 0.10347,0.18879c0.05991,0.10892 0.12163,0.21783 0.18334,0.32675c0.02905,0.05083 0.05627,0.10165 0.08532,0.15248c0.09076,0.15793 0.18153,0.31768 0.2723,0.47561c0.09076,0.15793 0.18334,0.31586 0.27593,0.4738c0.03086,0.05265 0.06172,0.10347 0.09258,0.15612c0.06172,0.10529 0.12344,0.21057 0.18698,0.31586l0.11436,0.19061c0.05627,0.0944 0.11255,0.18698 0.16883,0.28137c0.04175,0.06898 0.08532,0.13796 0.12707,0.20694c0.05446,0.08714 0.1071,0.17608 0.16156,0.26322c0.04538,0.0708 0.08895,0.14341 0.13434,0.21421c0.05446,0.08532 0.1071,0.17063 0.15974,0.25596c0.04538,0.07261 0.09258,0.14523 0.13796,0.21783c0.05265,0.08532 0.1071,0.16883 0.15974,0.25233c0.04538,0.07443 0.09258,0.14704 0.13978,0.21965c0.05265,0.0835 0.10529,0.16519 0.15974,0.2487c0.0472,0.07261 0.09621,0.14704 0.14341,0.21965c0.05265,0.08169 0.10529,0.16338 0.15974,0.24506c0.04901,0.07261 0.09803,0.14704 0.14704,0.22147c0.05446,0.07987 0.1071,0.16156 0.16156,0.24143c0.05083,0.07443 0.09985,0.14885 0.15067,0.22328c0.05265,0.07987 0.1071,0.15974 0.16156,0.23962c0.04901,0.07443 0.09985,0.14704 0.15067,0.22147c0.05446,0.07987 0.11074,0.15974 0.16519,0.23962c0.05083,0.07261 0.10165,0.14704 0.15248,0.21965c0.05627,0.07987 0.11074,0.15974 0.16701,0.23962c0.05083,0.07443 0.10347,0.14704 0.1543,0.21965c0.05809,0.07987 0.11436,0.15974 0.17063,0.23962c0.05083,0.07261 0.10165,0.14523 0.1543,0.21783c0.05809,0.07987 0.11436,0.15974 0.17245,0.23962c0.05265,0.07261 0.10347,0.14341 0.15612,0.21602l0.17427,0.23962c0.05265,0.0708 0.10347,0.14159 0.15612,0.21239c0.03267,0.04356 0.06535,0.08895 0.09803,0.13252c0.04356,0.03267 0.08895,0.06535 0.13252,0.09803c0.0708,0.05265 0.14159,0.10347 0.21239,0.15612c0.07987,0.05991 0.15974,0.11799 0.23962,0.17608c0.0708,0.05265 0.14159,0.10347 0.21421,0.15612c0.07987,0.05809 0.15974,0.11618 0.23962,0.17245c0.07261,0.05083 0.14523,0.10347 0.21783,0.1543c0.07987,0.05809 0.15974,0.11436 0.23962,0.17063c0.07261,0.05265 0.14523,0.10347 0.21783,0.1543c0.07987,0.05627 0.15974,0.11074 0.23962,0.16701c0.07261,0.05083 0.14704,0.10165 0.21965,0.15248c0.08169,0.05446 0.16156,0.11074 0.24143,0.16519c0.07443,0.05083 0.14704,0.09985 0.22147,0.15067c0.08169,0.05446 0.16156,0.10892 0.24325,0.16338c0.07261,0.04901 0.14704,0.09803 0.21965,0.14704c0.08169,0.05446 0.16519,0.10892 0.24688,0.16338c0.07261,0.04901 0.14523,0.09803 0.21783,0.14523c0.0835,0.05446 0.16519,0.10892 0.2487,0.16338l0.21783,0.14159c0.08532,0.05446 0.16883,0.10892 0.25414,0.16338c0.07261,0.04538 0.14341,0.09076 0.21421,0.13614c0.08714,0.05627 0.17245,0.11074 0.25959,0.16519c0.06898,0.04356 0.13978,0.08895 0.20876,0.13252c0.08714,0.05446 0.17608,0.11074 0.26503,0.16519c0.06898,0.04175 0.13614,0.08532 0.20513,0.12707c0.09258,0.05627 0.18334,0.11255 0.27593,0.16883c0.06535,0.03994 0.12889,0.07987 0.19423,0.11981c0.09803,0.05991 0.19423,0.11799 0.29226,0.17608l0.17972,0.10892c0.10892,0.06535 0.21783,0.12889 0.32675,0.19423c0.04901,0.02723 0.09621,0.05627 0.14523,0.08532c0.15793,0.09258 0.31586,0.18516 0.4738,0.27593c0.15793,0.09076 0.31586,0.18153 0.47561,0.2723c0.04901,0.02723 0.09985,0.05627 0.14885,0.0835c0.11074,0.06172 0.21965,0.12344 0.33039,0.18516c0.05991,0.03267 0.12163,0.06716 0.18153,0.09985c0.09985,0.05627 0.2015,0.11255 0.30134,0.16701c0.06535,0.03631 0.13252,0.07261 0.19787,0.10892c0.09621,0.05265 0.19061,0.10529 0.28682,0.15612c0.06898,0.03812 0.13978,0.07443 0.20876,0.11255c0.09258,0.04901 0.18698,0.09985 0.27955,0.14885l0.21783,0.11436c0.09076,0.0472 0.18334,0.09621 0.27411,0.14341c0.07625,0.03994 0.15067,0.07806 0.2251,0.11618c0.09076,0.04538 0.17972,0.09258 0.27048,0.13796c0.07625,0.03812 0.1543,0.07806 0.23054,0.11618c0.08895,0.04538 0.1779,0.08895 0.26685,0.13434c0.07806,0.03994 0.15793,0.07806 0.23599,0.11799c0.08714,0.04356 0.17608,0.08714 0.26322,0.1307c0.07987,0.03994 0.15974,0.07806 0.23962,0.11799c0.08714,0.04175 0.17427,0.08532 0.2614,0.12707c0.08169,0.03812 0.16156,0.07806 0.24325,0.11618l0.2614,0.12525c0.08169,0.03994 0.16338,0.07806 0.24506,0.11618c0.08714,0.04175 0.17427,0.0835 0.2614,0.12344c0.08169,0.03812 0.16338,0.07625 0.24688,0.11436c0.08532,0.03994 0.17245,0.07987 0.25959,0.11981l0.25051,0.11436c0.08714,0.03994 0.17427,0.07806 0.2614,0.11799c0.08532,0.03812 0.16883,0.07443 0.25233,0.11255c0.08714,0.03994 0.17427,0.07806 0.2614,0.11618c0.0835,0.03631 0.16883,0.07443 0.25233,0.11074c0.0472,0.01997 0.09621,0.04175 0.14341,0.06172c0.05446,0.00545 0.10892,0.01271 0.16338,0.01815c0.08714,0.00907 0.17427,0.01997 0.2614,0.02905l0.29953,0.03267c0.08714,0.00907 0.17245,0.01815 0.25959,0.02723c0.09985,0.00907 0.19968,0.01997 0.29953,0.02905c0.08714,0.00907 0.17245,0.01815 0.25959,0.02542l0.29953,0.02723c0.08532,0.00907 0.17245,0.01634 0.25777,0.0236c0.10165,0.00907 0.2015,0.01634 0.30134,0.02542c0.08532,0.00726 0.17245,0.01452 0.25777,0.02178c0.10165,0.00907 0.2015,0.01634 0.30134,0.0236c0.08532,0.00726 0.17245,0.01452 0.25777,0.01997l0.29953,0.02178c0.08532,0.00726 0.17245,0.01271 0.25777,0.01815c0.10165,0.00545 0.2015,0.01271 0.30134,0.01815l0.25596,0.01634c0.10165,0.00545 0.2015,0.01089 0.30315,0.01634c0.08532,0.00545 0.16883,0.01089 0.25414,0.01452c0.10165,0.00545 0.20332,0.00907 0.30497,0.01452c0.0835,0.00545 0.16701,0.00907 0.25051,0.01271c0.10165,0.00545 0.20513,0.00907 0.3086,0.01271c0.08169,0.00182 0.16338,0.00545 0.24506,0.00907l0.31042,0.01089c0.08169,0.00182 0.16156,0.00545 0.24325,0.00726c0.10529,0.00363 0.21239,0.00726 0.31768,0.00907l0.23417,0.00545l0.33039,0.00545c0.07261,0 0.14704,0.00182 0.21965,0.00363c0.11981,0.00182 0.23962,0.00182 0.35943,0.00363c0.06354,0 0.12707,0.00182 0.19061,0.00182c0.18334,0.00182 0.36669,0.00182 0.54822,0.00182c0.18153,0 0.36488,0 0.54641,-0.00726c0.06172,0 0.12525,-0.00182 0.18879,-0.00182c0.11981,0 0.23962,-0.00182 0.35943,-0.00363c0.07261,0 0.14704,-0.00182 0.21965,-0.00363c0.10892,-0.00182 0.21965,-0.00363 0.33039,-0.00545l0.23417,-0.00545c0.10529,-0.00363 0.21239,-0.00545 0.31768,-0.00907c0.07987,-0.00182 0.16156,-0.00545 0.24325,-0.00726l0.31042,-0.01089c0.08169,-0.00182 0.16519,-0.00545 0.24688,-0.00907c0.10165,-0.00363 0.20513,-0.00907 0.30679,-0.01271c0.08532,-0.00545 0.16883,-0.00907 0.25233,-0.01271c0.10165,-0.00545 0.2015,-0.00907 0.30315,-0.01452c0.08532,-0.00545 0.17063,-0.00907 0.25596,-0.01452l0.29953,-0.01634c0.08714,-0.00545 0.17245,-0.01089 0.25959,-0.01634c0.09985,-0.00545 0.19787,-0.01089 0.29771,-0.01815c0.08714,-0.00545 0.17427,-0.01271 0.2614,-0.01815c0.09803,-0.00545 0.19605,-0.01271 0.29408,-0.01997c0.08895,-0.00726 0.17608,-0.01271 0.26503,-0.01997c0.09803,-0.00907 0.19605,-0.01634 0.29408,-0.0236c0.08714,-0.00726 0.17608,-0.01452 0.26503,-0.02178c0.09621,-0.00907 0.19423,-0.01634 0.29226,-0.02542c0.08895,-0.00726 0.1779,-0.01634 0.26685,-0.0236c0.09803,-0.00907 0.19423,-0.01815 0.29226,-0.02723c0.08895,-0.00726 0.17972,-0.01634 0.26866,-0.02542c0.09621,-0.00907 0.19242,-0.01997 0.28863,-0.02905c0.09076,-0.01089 0.18153,-0.01997 0.2723,-0.02905c0.0944,-0.01089 0.19061,-0.01997 0.285,-0.03086c0.09258,-0.01089 0.18334,-0.01997 0.27411,-0.03086c0.05083,-0.00545 0.10347,-0.01271 0.15612,-0.01815c0.04901,-0.02178 0.09621,-0.04175 0.14523,-0.06354c0.0835,-0.03631 0.16883,-0.07443 0.25233,-0.11074c0.08714,-0.03812 0.17427,-0.07806 0.2614,-0.11618c0.0835,-0.03812 0.16701,-0.07443 0.25051,-0.11255c0.08714,-0.03812 0.17608,-0.07806 0.26322,-0.11799c0.0835,-0.03631 0.16701,-0.07443 0.2487,-0.11255l0.2614,-0.11981c0.08169,-0.03812 0.16519,-0.07625 0.24688,-0.11436c0.08714,-0.03994 0.17427,-0.07987 0.2614,-0.12163c0.0835,-0.03812 0.16519,-0.07806 0.24688,-0.11618l0.2614,-0.12525c0.08169,-0.03812 0.16156,-0.07625 0.24325,-0.11618c0.08714,-0.04175 0.17245,-0.08532 0.25959,-0.12707c0.07987,-0.03812 0.16156,-0.07806 0.24143,-0.11799c0.08714,-0.04356 0.17245,-0.08532 0.25959,-0.12889l0.23962,-0.11981c0.08714,-0.04356 0.17245,-0.08714 0.25959,-0.1307c0.07987,-0.03994 0.15974,-0.07987 0.23781,-0.11981c0.08714,-0.04356 0.17245,-0.08714 0.25959,-0.13252c0.07987,-0.03994 0.15793,-0.08169 0.23599,-0.12163c0.08714,-0.04538 0.17245,-0.09076 0.25959,-0.13614c0.07806,-0.03994 0.15612,-0.08169 0.23236,-0.12163c0.08895,-0.04538 0.17608,-0.09258 0.26322,-0.13978c0.07443,-0.04175 0.15067,-0.08169 0.2251,-0.12163c0.08895,-0.04901 0.1779,-0.09621 0.26685,-0.14523c0.07443,-0.03994 0.14704,-0.07987 0.21965,-0.11981c0.09076,-0.05083 0.18334,-0.10165 0.27411,-0.15248l0.20694,-0.11436c0.10347,-0.05809 0.20513,-0.11436 0.30679,-0.17245c0.05809,-0.03267 0.11618,-0.06354 0.17245,-0.09621c0.15974,-0.09076 0.31768,-0.18153 0.47561,-0.2723c0.15793,-0.09076 0.31586,-0.18334 0.4738,-0.27593c0.05446,-0.03267 0.11074,-0.06535 0.16519,-0.09803c0.10165,-0.05991 0.20513,-0.11981 0.30679,-0.18153c0.06535,-0.03994 0.13252,-0.07987 0.19787,-0.11981c0.09076,-0.05446 0.18334,-0.10892 0.27411,-0.16519c0.06898,-0.04175 0.13978,-0.08532 0.20876,-0.12707c0.08714,-0.05446 0.17427,-0.1071 0.2614,-0.16156c0.07261,-0.04356 0.14341,-0.08895 0.21421,-0.13252c0.08532,-0.05265 0.17063,-0.10529 0.25596,-0.15974c0.07261,-0.04538 0.14341,-0.09076 0.21602,-0.13614c0.0835,-0.05265 0.16883,-0.1071 0.25233,-0.15974c0.07261,-0.04538 0.14523,-0.09258 0.21783,-0.13978c0.0835,-0.05265 0.16519,-0.10529 0.2487,-0.15974c0.07261,-0.0472 0.14704,-0.09621 0.21965,-0.14341c0.08169,-0.05265 0.16338,-0.10529 0.24506,-0.15974c0.07443,-0.04901 0.14704,-0.09803 0.22147,-0.14704c0.08169,-0.05446 0.16156,-0.1071 0.24325,-0.16156c0.07261,-0.04901 0.14704,-0.09985 0.22147,-0.14885c0.08169,-0.05446 0.16156,-0.10892 0.24143,-0.16338l0.22328,-0.15248c0.07987,-0.05446 0.15793,-0.10892 0.23781,-0.16338c0.07443,-0.05083 0.14885,-0.10347 0.22328,-0.1543c0.07987,-0.05446 0.15974,-0.11074 0.23781,-0.16519c0.07261,-0.05265 0.14704,-0.10347 0.22147,-0.15612c0.07806,-0.05627 0.15793,-0.11074 0.23599,-0.16701c0.07261,-0.05265 0.14704,-0.10529 0.22147,-0.15793c0.07806,-0.05446 0.15612,-0.11074 0.23417,-0.16701c0.07443,-0.05446 0.14885,-0.1071 0.22328,-0.16156c0.07625,-0.05627 0.1543,-0.11255 0.23054,-0.16883l0.22328,-0.16338l0.12525,-0.09258c0.02905,-0.03994 0.05991,-0.07987 0.08895,-0.11981c0.05627,-0.07806 0.11436,-0.1543 0.17063,-0.23236l0.16338,-0.22328c0.05446,-0.07625 0.11074,-0.15248 0.16519,-0.22873l0.16338,-0.22873c0.05446,-0.07625 0.1071,-0.15067 0.16156,-0.22691c0.05627,-0.07625 0.11074,-0.1543 0.16519,-0.23236l0.15793,-0.22328c0.05446,-0.07987 0.11074,-0.15793 0.16519,-0.23781c0.05083,-0.07443 0.10347,-0.14885 0.1543,-0.22328l0.16338,-0.23962l0.15248,-0.22328c0.05446,-0.07987 0.10892,-0.16156 0.16338,-0.24143c0.04901,-0.07261 0.09985,-0.14704 0.14885,-0.22147c0.05446,-0.07987 0.1071,-0.16156 0.16156,-0.24325c0.04901,-0.07443 0.09803,-0.14704 0.14704,-0.22147c0.05446,-0.08169 0.1071,-0.16519 0.16156,-0.24688c0.0472,-0.07261 0.09621,-0.14704 0.14341,-0.21965c0.05265,-0.0835 0.1071,-0.16519 0.15974,-0.2487c0.0472,-0.07261 0.0944,-0.14704 0.14159,-0.21965c0.05265,-0.0835 0.10529,-0.16519 0.15793,-0.2487c0.0472,-0.07443 0.0944,-0.14704 0.13978,-0.22147c0.05265,-0.0835 0.10347,-0.16701 0.15612,-0.25051c0.04538,-0.07261 0.09076,-0.14704 0.13614,-0.21965c0.05446,-0.08532 0.10529,-0.17063 0.15793,-0.25596c0.04356,-0.0708 0.08714,-0.14341 0.1307,-0.21421c0.05446,-0.08895 0.1071,-0.17972 0.16156,-0.26866c0.03994,-0.06716 0.08169,-0.13434 0.12163,-0.2015c0.05991,-0.09985 0.11799,-0.2015 0.1779,-0.30134c0.03449,-0.05627 0.06898,-0.11436 0.10165,-0.17063c0.09258,-0.15612 0.18516,-0.31404 0.27593,-0.47198c0.09076,-0.15793 0.18153,-0.31586 0.2723,-0.47561c0.03449,-0.05991 0.06716,-0.11981 0.10165,-0.17972l0.16883,-0.29953c0.03994,-0.0708 0.07806,-0.14159 0.11799,-0.21239c0.04901,-0.09076 0.09985,-0.17972 0.14885,-0.27048c0.04175,-0.07443 0.08169,-0.14885 0.12163,-0.22328c0.04901,-0.08895 0.09621,-0.17608 0.14341,-0.26322c0.04175,-0.07625 0.08169,-0.15248 0.12344,-0.22873c0.04538,-0.08532 0.09258,-0.17063 0.13796,-0.25777c0.04175,-0.07987 0.08169,-0.15793 0.12344,-0.23599c0.04538,-0.08532 0.08895,-0.17063 0.13434,-0.25596c0.04175,-0.07806 0.08169,-0.15793 0.12344,-0.23781l0.1307,-0.25596c0.03994,-0.07987 0.08169,-0.15974 0.12163,-0.23962c0.04175,-0.08532 0.08532,-0.17063 0.12889,-0.25596c0.03994,-0.07987 0.07987,-0.16156 0.11981,-0.24143c0.04175,-0.08714 0.08532,-0.17245 0.12707,-0.25777l0.11981,-0.24506c0.04175,-0.08532 0.0835,-0.17245 0.12525,-0.25777c0.03994,-0.08169 0.07806,-0.16338 0.11799,-0.24506c0.04175,-0.08532 0.08169,-0.17063 0.12344,-0.25777c0.03812,-0.08169 0.07806,-0.16519 0.11618,-0.24688c0.03994,-0.08714 0.08169,-0.17245 0.12163,-0.25959c0.03994,-0.08169 0.07806,-0.16519 0.11618,-0.2487c0.03994,-0.08532 0.07987,-0.17245 0.11981,-0.25777c0.03994,-0.08532 0.07806,-0.16883 0.11618,-0.25414c0.03994,-0.08532 0.07806,-0.17063 0.11618,-0.25596c0.03812,-0.08714 0.07625,-0.17245 0.11436,-0.25777zM232.90783,212.84251c-4.72522,2.40346 -9.45952,5.19357 -14.08309,8.30318c-8.72614,5.86886 -14.93809,11.45454 -17.47588,13.85073c2.37078,2.24552 7.96009,7.27753 15.81489,12.72162c0.01815,-0.03812 0.03812,-0.07625 0.05809,-0.11436c0.06535,-0.12889 0.13252,-0.25777 0.19787,-0.38666c0.09803,-0.19242 0.19605,-0.38302 0.2959,-0.57545c0.06898,-0.13252 0.13978,-0.26685 0.20876,-0.39937l0.29408,-0.56093c0.0708,-0.13434 0.14159,-0.26866 0.21239,-0.40118c0.09803,-0.18516 0.19787,-0.37213 0.29771,-0.5573c0.06898,-0.1307 0.13978,-0.2614 0.21057,-0.39211c0.10347,-0.19061 0.20876,-0.38122 0.31223,-0.57182c0.06716,-0.12344 0.13434,-0.24688 0.2015,-0.36851c0.11436,-0.20876 0.22873,-0.41571 0.34491,-0.62265c0.05809,-0.10347 0.11436,-0.20694 0.17245,-0.31042c0.16883,-0.30134 0.33764,-0.60086 0.50829,-0.90039c0.00545,-0.00907 0.00907,-0.01634 0.01452,-0.02542c0.17608,-0.30679 0.35217,-0.61176 0.52825,-0.91673c0.05809,-0.09985 0.11799,-0.19968 0.17608,-0.29953c0.11981,-0.20513 0.23962,-0.40844 0.35943,-0.61176c0.0708,-0.11799 0.13978,-0.23417 0.21057,-0.35217c0.10892,-0.18516 0.21965,-0.37032 0.33039,-0.55367l0.22328,-0.37032c0.1071,-0.1779 0.21421,-0.3558 0.32313,-0.53188c0.07625,-0.12525 0.15248,-0.2487 0.22873,-0.37213c0.10892,-0.17608 0.21783,-0.35217 0.32675,-0.52643c0.07443,-0.12163 0.15067,-0.24143 0.22691,-0.36306c0.11255,-0.17972 0.2251,-0.35762 0.33946,-0.53733c0.07261,-0.11255 0.14523,-0.22691 0.21783,-0.34128l0.37577,-0.58271c0.06172,-0.0944 0.12344,-0.19061 0.18516,-0.28682c0.18698,-0.28863 0.37577,-0.57545 0.56456,-0.86045c2.58498,-3.89926 5.34969,-7.59158 8.21786,-10.97167c2.48515,-2.93171 5.10462,-5.69278 7.784,-8.20878c1.54301,-1.44861 3.12776,-2.8355 4.73793,-4.14977c0.89858,-0.73338 1.80441,-1.44134 2.71569,-2.12571l0.00182,-0.00182l0.19605,-0.14523c0.00363,-0.00182 0.00726,-0.00545 0.01089,-0.00726c0.00182,0 0.00182,-0.00182 0.00363,-0.00182l4.9122,-3.66327l-0.36488,0.09803c-0.05627,0.01634 -0.11255,0.03086 -0.16883,0.0472c-0.14341,0.03994 -0.28863,0.07987 -0.43204,0.11981c-0.06898,0.01997 -0.13796,0.03812 -0.20694,0.05809c-0.13796,0.03812 -0.27774,0.07806 -0.41571,0.11799l-0.19061,0.05446c-0.17972,0.05265 -0.36124,0.10529 -0.54278,0.15974c-0.01815,0.00545 -0.03812,0.01089 -0.05627,0.01634c-0.19968,0.05991 -0.39755,0.11981 -0.59723,0.17972c-0.05991,0.01815 -0.12163,0.03812 -0.18153,0.05627c-0.14159,0.04356 -0.28137,0.08714 -0.42296,0.1307c-0.0708,0.02178 -0.13978,0.04356 -0.21057,0.06535c-0.13978,0.04356 -0.27774,0.08895 -0.41751,0.13252l-0.19061,0.05991c-0.18879,0.05991 -0.37758,0.12163 -0.56637,0.18334l-0.03267,0.01089c-0.19968,0.06535 -0.39937,0.1307 -0.59905,0.19787c-0.05991,0.01997 -0.12163,0.04175 -0.18334,0.06172c-0.14159,0.0472 -0.28137,0.09621 -0.42296,0.14341l-0.20694,0.0708c-0.14159,0.0472 -0.28137,0.09621 -0.42115,0.14523c-0.06354,0.02178 -0.12525,0.04356 -0.18698,0.06535c-0.19787,0.0708 -0.39755,0.14159 -0.59723,0.21239c-4.04267,1.44679 -8.15432,3.20582 -12.22059,5.22988c-0.31586,0.15612 -0.62991,0.31586 -0.94577,0.47561zM219.42378,251.08904c-4.62175,9.44681 -7.20855,17.39057 -8.20515,20.73616c3.17677,0.75879 10.53236,2.32177 20.05724,3.11505c-0.00363,-0.0472 -0.00545,-0.09258 -0.00726,-0.13796c-0.00726,-0.13434 -0.01271,-0.27048 -0.01997,-0.40482l-0.03267,-0.67529c-0.00545,-0.14341 -0.01271,-0.28682 -0.01815,-0.43022c-0.00907,-0.21783 -0.01815,-0.43567 -0.02723,-0.6517c-0.00545,-0.14523 -0.01089,-0.29226 -0.01634,-0.43749l-0.02178,-0.64806c-0.00363,-0.14341 -0.00907,-0.28863 -0.01271,-0.43204c-0.00545,-0.22147 -0.01089,-0.44111 -0.01634,-0.66259c-0.00363,-0.13796 -0.00545,-0.27411 -0.00907,-0.41026c-0.00545,-0.24325 -0.00907,-0.48469 -0.01271,-0.72612l-0.00545,-0.34128c-0.00907,-0.70978 -0.01271,-1.41775 -0.01089,-2.1239c0,-0.11255 0.00182,-0.22691 0.00182,-0.33946l0.00545,-0.71704l0.00545,-0.40662c0.00182,-0.21602 0.00545,-0.43204 0.00907,-0.64806c0.00363,-0.14341 0.00545,-0.28682 0.00907,-0.43022c0.00363,-0.20876 0.00907,-0.41751 0.01452,-0.62446c0.00363,-0.14523 0.00907,-0.29045 0.01271,-0.43567c0.00545,-0.20694 0.01271,-0.41207 0.01997,-0.61901c0.00363,-0.14341 0.00907,-0.285 0.01452,-0.42841c0.00726,-0.21239 0.01634,-0.42478 0.02542,-0.63717c0.00726,-0.13614 0.01271,-0.27048 0.01815,-0.40482c0.01089,-0.23054 0.0236,-0.4629 0.03449,-0.69344c0.00545,-0.11436 0.01089,-0.22873 0.01634,-0.34128c0.01997,-0.34309 0.03812,-0.68619 0.05991,-1.02746c0.28863,-4.67077 0.83867,-9.25076 1.63195,-13.61111c0.68799,-3.78308 1.57568,-7.48267 2.63763,-10.99889c0.60994,-2.02406 1.28886,-4.01907 2.02769,-5.96326c0.41026,-1.08373 0.8423,-2.15113 1.28886,-3.19856v-0.00363l0.09803,-0.23054c0,-0.00182 0.00182,-0.00363 0.00182,-0.00545l2.42706,-5.63469l-0.26685,0.26685c-0.04175,0.04175 -0.08532,0.08532 -0.12707,0.12889c-0.10529,0.10529 -0.20876,0.21239 -0.31223,0.31768c-0.04901,0.05083 -0.09985,0.10165 -0.14885,0.15248c-0.09985,0.10347 -0.2015,0.20694 -0.30134,0.31042c-0.04538,0.0472 -0.09258,0.09621 -0.13796,0.14341c-0.1307,0.13614 -0.2614,0.2723 -0.39211,0.41026c-0.01271,0.01271 -0.02542,0.02723 -0.03812,0.03994c-0.14341,0.15067 -0.285,0.30315 -0.42841,0.45564c-0.04175,0.04538 -0.08532,0.09076 -0.12707,0.13614c-0.10165,0.10892 -0.20332,0.21783 -0.30497,0.32857l-0.14704,0.15793c-0.09803,0.10892 -0.19787,0.21783 -0.29771,0.32675c-0.04356,0.04901 -0.08895,0.09621 -0.13252,0.14523c-0.13614,0.14885 -0.27048,0.29771 -0.40482,0.44838c-0.00545,0.00545 -0.01271,0.01271 -0.01815,0.01997c-0.14159,0.15612 -0.28137,0.31404 -0.42115,0.47198c-0.04356,0.0472 -0.08532,0.09621 -0.12707,0.14341c-0.09803,0.11255 -0.19787,0.2251 -0.2959,0.33764c-0.04901,0.05446 -0.09621,0.10892 -0.14523,0.16519c-0.09803,0.11074 -0.19605,0.22328 -0.29226,0.33583c-0.04356,0.04901 -0.08532,0.09985 -0.12889,0.14885c-0.13796,0.15974 -0.27411,0.32131 -0.41207,0.48287c-2.60314,3.06967 -5.12277,6.40801 -7.49537,9.9315c-0.15793,0.23599 -0.31586,0.47198 -0.47198,0.70797c-3.1096,4.69073 -6.01227,9.77538 -8.6263,15.11599zM316.14836,257.6332c5.03746,-2.50693 10.09306,-5.46042 15.02705,-8.77878c8.74248,-5.87975 14.94354,-11.45636 17.47588,-13.85437c-2.37259,-2.24552 -7.9619,-7.27753 -15.8167,-12.72162c-0.01997,0.03994 -0.04175,0.08169 -0.06172,0.12163c-0.06172,0.12163 -0.12525,0.24506 -0.18698,0.36669c-0.10165,0.19787 -0.20332,0.39755 -0.30679,0.59542l-0.2015,0.38666l-0.29953,0.57182l-0.20694,0.39211c-0.10165,0.18879 -0.2015,0.37758 -0.30315,0.56637c-0.06898,0.12707 -0.13796,0.25596 -0.20694,0.38302c-0.10529,0.19423 -0.21239,0.38847 -0.31768,0.58271l-0.19605,0.35943c-0.11618,0.21057 -0.23417,0.42296 -0.35217,0.63354c-0.05627,0.09985 -0.11074,0.19968 -0.16701,0.29953c-0.34673,0.62083 -0.69889,1.23622 -1.05287,1.84616l-0.16883,0.28863c-0.12163,0.20876 -0.24325,0.41571 -0.36488,0.62265c-0.06898,0.11618 -0.13796,0.23054 -0.20694,0.34673c-0.11074,0.18698 -0.22147,0.37395 -0.33402,0.55911c-0.07443,0.12163 -0.14704,0.24325 -0.22147,0.36488c-0.10892,0.17972 -0.21783,0.35943 -0.32675,0.53733c-0.07625,0.12163 -0.15067,0.24506 -0.22691,0.36669c-0.10892,0.17608 -0.21783,0.35398 -0.32857,0.53007c-0.07443,0.12163 -0.15067,0.24143 -0.2251,0.36124c-0.11255,0.18153 -0.22691,0.36124 -0.34128,0.54096c-0.07261,0.11255 -0.14341,0.22691 -0.21602,0.33946c-0.12525,0.19605 -0.25233,0.39211 -0.37758,0.58634c-0.06172,0.0944 -0.12163,0.18879 -0.18334,0.28319c-0.18698,0.28863 -0.37577,0.57545 -0.56456,0.86045c-2.58498,3.89926 -5.34969,7.59158 -8.21786,10.97167c-2.48515,2.92989 -5.10281,5.69096 -7.784,8.20697c-2.39983,2.2546 -4.90676,4.36398 -7.45543,6.2773l-0.00182,0.00363l-0.19787,0.14885c-0.00182,0.00182 -0.00545,0.00363 -0.00726,0.00545l-4.91401,3.66509c0.12163,-0.03267 0.24143,-0.06535 0.36306,-0.09803c0.05627,-0.01634 0.11255,-0.03086 0.16883,-0.0472c0.14523,-0.03994 0.29045,-0.08169 0.43567,-0.12163c0.06716,-0.01815 0.13252,-0.03812 0.19968,-0.05627c0.14159,-0.03994 0.285,-0.07987 0.4266,-0.12163c0.05991,-0.01815 0.12163,-0.03449 0.18153,-0.05265c0.19061,-0.05446 0.38122,-0.11074 0.57182,-0.16701c0.01089,-0.00363 0.01997,-0.00545 0.02905,-0.00907c0.2015,-0.05991 0.403,-0.11981 0.6045,-0.18153c0.05627,-0.01634 0.11074,-0.03449 0.16701,-0.05083l0.44111,-0.13614c0.06535,-0.01997 0.1307,-0.04175 0.19605,-0.06172c0.14523,-0.04538 0.28863,-0.09076 0.43386,-0.13614c0.05809,-0.01815 0.11799,-0.03812 0.17608,-0.05627c0.19787,-0.06354 0.39573,-0.12707 0.59361,-0.19242c0.00182,0 0.00545,-0.00182 0.00726,-0.00182c0.2015,-0.06535 0.403,-0.13252 0.6045,-0.19968c0.05809,-0.01997 0.11799,-0.03994 0.17608,-0.05991c0.14341,-0.0472 0.28682,-0.09621 0.43022,-0.14523c0.06716,-0.02178 0.13614,-0.04538 0.20332,-0.06898l0.42478,-0.14704c0.05991,-0.01997 0.12163,-0.04175 0.18334,-0.06354l0.59905,-0.21239c3.2857,-1.1745 6.61495,-2.55594 9.92968,-4.11892c0.76424,-0.36124 1.52848,-0.73157 2.29091,-1.11096zM234.91554,276.72288c0.71886,10.49062 2.44884,18.66309 3.26028,22.05952c3.12958,-0.93125 10.28367,-3.25665 18.92267,-7.33199c-0.02542,-0.03994 -0.04901,-0.07806 -0.07443,-0.11618c-0.07443,-0.11436 -0.14704,-0.22873 -0.22147,-0.34309c-0.12163,-0.18698 -0.24325,-0.37577 -0.36488,-0.56456c-0.07806,-0.12344 -0.15612,-0.24506 -0.23417,-0.36851c-0.11436,-0.18153 -0.23054,-0.36488 -0.34491,-0.54641c-0.07987,-0.12525 -0.15793,-0.25051 -0.23599,-0.37577c-0.11436,-0.18334 -0.22691,-0.36488 -0.33946,-0.54641c-0.07806,-0.12344 -0.1543,-0.2487 -0.23054,-0.37213l-0.34309,-0.56093c-0.07261,-0.11799 -0.14523,-0.23599 -0.21602,-0.35398c-0.12344,-0.20513 -0.24688,-0.40844 -0.36851,-0.61357c-0.05991,-0.10165 -0.12163,-0.2015 -0.18153,-0.30315c-0.17608,-0.29771 -0.35398,-0.59723 -0.52825,-0.89676c-0.00363,-0.00545 -0.00726,-0.01271 -0.01089,-0.01815c-0.1779,-0.30497 -0.35398,-0.61176 -0.53007,-0.91673c-0.05809,-0.09985 -0.11436,-0.2015 -0.17245,-0.30134c-0.11799,-0.20513 -0.23417,-0.41207 -0.35035,-0.6172c-0.06716,-0.11981 -0.13252,-0.23781 -0.19968,-0.35762c-0.10529,-0.18879 -0.21057,-0.37577 -0.31404,-0.56456c-0.06898,-0.12525 -0.13796,-0.25233 -0.20694,-0.37758c-0.10165,-0.18153 -0.19968,-0.36488 -0.29953,-0.54641c-0.06898,-0.12707 -0.13796,-0.25596 -0.20694,-0.38302c-0.09803,-0.18153 -0.19423,-0.36306 -0.29226,-0.54641c-0.06716,-0.12525 -0.13434,-0.25233 -0.2015,-0.37758c-0.09985,-0.18879 -0.19787,-0.37577 -0.2959,-0.56456c-0.06354,-0.11981 -0.12525,-0.23781 -0.18698,-0.35762c-0.1071,-0.20694 -0.21421,-0.41389 -0.31949,-0.62083c-0.05083,-0.10165 -0.10347,-0.2015 -0.1543,-0.30134c-0.15612,-0.30679 -0.31042,-0.61357 -0.4629,-0.92036c-2.08578,-4.19152 -3.90108,-8.43025 -5.39325,-12.60362c-0.4865,-1.35421 -0.94032,-2.71387 -1.36511,-4.07353c-0.70615,-2.26549 -1.32698,-4.53099 -1.8516,-6.76925c-0.75335,-3.20945 -1.32698,-6.43524 -1.7082,-9.59386l-0.00182,-0.00363l-0.02905,-0.25233v-0.00182l-0.71523,-6.09215l-0.05446,0.2015c-0.01089,0.0472 -0.0236,0.09258 -0.03631,0.13978c-0.07987,0.30315 -0.15793,0.60812 -0.23599,0.91491c-0.01634,0.06716 -0.03449,0.13614 -0.05083,0.20332c-0.07806,0.31223 -0.1543,0.62628 -0.23054,0.94032c-0.00363,0.00907 -0.00545,0.01815 -0.00726,0.02723c-0.07261,0.3086 -0.14523,0.6172 -0.21602,0.92762c-0.01452,0.06716 -0.03086,0.13434 -0.04538,0.2015c-0.0708,0.31042 -0.13978,0.62083 -0.20694,0.93307c-0.01089,0.05446 -0.0236,0.10892 -0.03449,0.16338c-0.05991,0.285 -0.11981,0.57182 -0.17972,0.85864c-0.01089,0.05265 -0.02178,0.10347 -0.03267,0.15612c-0.06354,0.31404 -0.12525,0.6281 -0.18698,0.94396c-0.01271,0.0708 -0.02723,0.13978 -0.03994,0.21057c-0.06172,0.32313 -0.12163,0.64625 -0.18153,0.97118c-0.76969,4.2242 -1.30157,8.66442 -1.58113,13.19722c-0.34673,5.61835 -0.31768,11.47451 0.08895,17.40508zM299.31872,275.17443c5.61835,0.34673 11.47451,0.31768 17.40508,-0.08895c10.50877,-0.72068 18.66853,-2.44884 22.0577,-3.25846c-0.93125,-3.12958 -3.25483,-10.28367 -7.33562,-18.92631c-0.03812,0.02542 -0.07625,0.04901 -0.11255,0.07261l-0.35398,0.22873c-0.18516,0.11981 -0.37032,0.23962 -0.55548,0.35762c-0.12525,0.07987 -0.2487,0.15793 -0.37395,0.23781c-0.17972,0.11436 -0.35943,0.22873 -0.53914,0.34128c-0.12707,0.07987 -0.25233,0.15793 -0.3794,0.23781c-0.17972,0.11255 -0.36124,0.2251 -0.54278,0.33764c-0.12344,0.07806 -0.2487,0.1543 -0.37213,0.23054l-0.56093,0.34309c-0.11799,0.07261 -0.23599,0.14523 -0.35398,0.21602c-0.20513,0.12525 -0.41026,0.24688 -0.61539,0.37032c-0.09803,0.05809 -0.19787,0.11799 -0.29771,0.1779c-0.30315,0.18153 -0.60812,0.36124 -0.91309,0.53914c0,0.00182 -0.00182,0.00182 -0.00182,0.00182c-0.30679,0.17972 -0.61176,0.3558 -0.91854,0.53188c-0.09803,0.05627 -0.19605,0.11074 -0.29408,0.16701c-0.20876,0.11799 -0.41571,0.23599 -0.62446,0.35398c-0.11799,0.06716 -0.23599,0.13252 -0.35398,0.19787c-0.18879,0.10529 -0.3794,0.21057 -0.56819,0.31586l-0.37577,0.20694l-0.55003,0.29953l-0.38122,0.20694c-0.18153,0.09803 -0.36488,0.19605 -0.54822,0.29408c-0.12525,0.06535 -0.25233,0.13252 -0.37758,0.19968c-0.18879,0.09985 -0.37577,0.19787 -0.56456,0.2959c-0.11799,0.06172 -0.23781,0.12525 -0.35762,0.18698c-0.20513,0.1071 -0.41207,0.21239 -0.61901,0.31768c-0.09985,0.05083 -0.2015,0.10347 -0.30134,0.1543c-0.30679,0.15612 -0.61357,0.31042 -0.92036,0.4629c-4.19152,2.08578 -8.43025,3.90108 -12.60362,5.39325c-3.61426,1.29431 -7.26301,2.37623 -10.8446,3.21671c-2.8827,0.67529 -5.78173,1.20899 -8.63357,1.58657c-0.32131,0.04356 -0.64261,0.0835 -0.96211,0.12163l-0.00363,0.00182l-0.25233,0.02905h-0.00182l-6.08488,0.71704l0.2015,0.05446c0.04356,0.01271 0.08895,0.0236 0.13434,0.03631c0.30497,0.07987 0.60994,0.15793 0.91673,0.23599c0.06898,0.01634 0.13614,0.03449 0.20332,0.05083c0.31223,0.07806 0.62628,0.1543 0.94032,0.23054c0.00907,0.00363 0.01815,0.00545 0.02723,0.00726c0.3086,0.07261 0.6172,0.14523 0.92762,0.21602c0.06716,0.01452 0.13252,0.03086 0.19968,0.04538c0.31042,0.0708 0.62265,0.13978 0.93488,0.20694c0.05446,0.01089 0.1071,0.0236 0.16156,0.03449c0.28682,0.06172 0.57545,0.12163 0.86408,0.18153c0.04901,0.00907 0.09985,0.01997 0.15067,0.03086c0.31404,0.06535 0.62991,0.12707 0.94577,0.18879c0.0708,0.01271 0.13978,0.02723 0.20876,0.03994c0.32313,0.06354 0.64806,0.12344 0.973,0.18334c4.2242,0.76969 8.66442,1.30157 13.19722,1.58113zM261.14661,291.17448c5.86886,8.72614 11.45454,14.93809 13.85437,17.47407c2.24552,-2.37078 7.27753,-7.96009 12.72162,-15.81307c-0.03812,-0.01997 -0.07806,-0.03994 -0.11618,-0.05991c-0.12707,-0.06354 -0.25414,-0.12889 -0.38122,-0.19423c-0.19423,-0.09803 -0.38847,-0.19787 -0.5809,-0.29771c-0.13434,-0.06898 -0.26685,-0.13796 -0.39937,-0.20694c-0.18698,-0.09621 -0.37213,-0.19423 -0.55911,-0.29226l-0.403,-0.21239c-0.18516,-0.09803 -0.36851,-0.19605 -0.55367,-0.2959c-0.13252,-0.0708 -0.26322,-0.14159 -0.39573,-0.21239c-0.18879,-0.10347 -0.37758,-0.20513 -0.56637,-0.3086c-0.12344,-0.06898 -0.2487,-0.13614 -0.37395,-0.20513c-0.20513,-0.11255 -0.41026,-0.2251 -0.61357,-0.33946c-0.1071,-0.05991 -0.21421,-0.11799 -0.31949,-0.1779c-0.29226,-0.16519 -0.58452,-0.33039 -0.87498,-0.49558c-0.01815,-0.01089 -0.03812,-0.02178 -0.05627,-0.03267c-0.30315,-0.17245 -0.60631,-0.34853 -0.90765,-0.52281c-0.10165,-0.05809 -0.20332,-0.11799 -0.30497,-0.1779c-0.20332,-0.11799 -0.40482,-0.23599 -0.60631,-0.3558c-0.11981,-0.0708 -0.23781,-0.14159 -0.35762,-0.21239c-0.18334,-0.10892 -0.36669,-0.21783 -0.55003,-0.32857c-0.12525,-0.07443 -0.2487,-0.15067 -0.37213,-0.2251c-0.1779,-0.1071 -0.35398,-0.21602 -0.53007,-0.32313c-0.12525,-0.07625 -0.2487,-0.1543 -0.37395,-0.23054c-0.17608,-0.1071 -0.35035,-0.21602 -0.52462,-0.32494l-0.36488,-0.22873c-0.17972,-0.11255 -0.35943,-0.22691 -0.53733,-0.33946l-0.34309,-0.21783l-0.58271,-0.37577c-0.0944,-0.06172 -0.19061,-0.12344 -0.28682,-0.18516c-0.28863,-0.18698 -0.57545,-0.37577 -0.86045,-0.56456c-3.90108,-2.5868 -7.59339,-5.3515 -10.97167,-8.21786c-0.18334,-0.15612 -0.36669,-0.31223 -0.54822,-0.46835c-2.7284,-2.34718 -5.30249,-4.80691 -7.65875,-7.31566c-2.2546,-2.40164 -4.3658,-4.90856 -6.27549,-7.45362l-0.00182,-0.00182l-0.14885,-0.2015c-0.00182,-0.00182 -0.00182,-0.00363 -0.00363,-0.00545l-3.66509,-4.91401c0.03267,0.12163 0.06535,0.24143 0.09803,0.36306c0.01452,0.05809 0.03086,0.11618 0.0472,0.17427c0.03994,0.14341 0.07987,0.28863 0.11981,0.43204c0.01815,0.06898 0.03631,0.13614 0.05627,0.20332c0.03812,0.14159 0.07987,0.28137 0.11981,0.42296c0.01815,0.06172 0.03449,0.12163 0.05265,0.18334c0.05446,0.19061 0.11074,0.38122 0.16701,0.57182c0.00363,0.00907 0.00545,0.01815 0.00907,0.02723c0.05991,0.2015 0.11981,0.403 0.18153,0.6045c0.01634,0.05446 0.03449,0.11074 0.05083,0.16519l0.13614,0.44111c0.01997,0.06535 0.04175,0.1307 0.06172,0.19605c0.04538,0.14523 0.09258,0.28863 0.13796,0.43386c0.01997,0.05809 0.03812,0.11618 0.05627,0.17427c0.12889,0.403 0.2614,0.80418 0.39573,1.20717c0.01815,0.05627 0.03812,0.11255 0.05627,0.16883c0.04901,0.14523 0.09985,0.29226 0.14885,0.43749c0.02178,0.06535 0.04538,0.13252 0.06716,0.19787c0.04901,0.14341 0.09803,0.28863 0.14885,0.43204c0.01997,0.05809 0.04175,0.11799 0.06172,0.17608c0.06898,0.19968 0.14159,0.40118 0.21239,0.60086c0.54278,1.51577 1.12912,3.04244 1.75721,4.57092c1.04561,2.54868 2.2074,5.10825 3.47267,7.64967c1.92421,3.86659 4.11347,7.74588 6.52782,11.57253c0.73157,1.15635 1.48128,2.30906 2.25097,3.45451zM291.09178,290.57725c9.445,4.62175 17.38875,7.20855 20.73434,8.20515c0.75879,-3.17677 2.32177,-10.53418 3.11324,-20.06268c-0.08169,0.00545 -0.16338,0.00907 -0.24506,0.01271l-0.41389,0.02178c-0.24688,0.01271 -0.49194,0.0236 -0.73883,0.03449c-0.13614,0.00545 -0.27411,0.01271 -0.41026,0.01815c-0.26503,0.01089 -0.53188,0.02178 -0.79873,0.03086c-0.11074,0.00363 -0.22147,0.00907 -0.3322,0.01271c-0.37213,0.01271 -0.74428,0.02542 -1.11641,0.03449l-0.21421,0.00545c-0.30315,0.00726 -0.6045,0.01452 -0.90583,0.01997l-0.39392,0.00545c-0.24506,0.00363 -0.49013,0.00726 -0.73338,0.00907c-0.14159,0.00182 -0.28137,0.00182 -0.42296,0.00363c-0.24143,0.00182 -0.48105,0.00363 -0.72249,0.00363c-0.08895,0 -0.1779,0.00182 -0.26685,0.00182h-0.15248c-0.17427,0 -0.34853,-0.00182 -0.52281,-0.00182c-0.16156,-0.00182 -0.32494,-0.00182 -0.4865,-0.00363l-0.52281,-0.00545l-0.48287,-0.00545c-0.17608,-0.00182 -0.35035,-0.00545 -0.52462,-0.00907c-0.15974,-0.00182 -0.31949,-0.00545 -0.47924,-0.00907c-0.17608,-0.00545 -0.35035,-0.00907 -0.52643,-0.01452c-0.15793,-0.00363 -0.31586,-0.00726 -0.4738,-0.01271c-0.1779,-0.00545 -0.3558,-0.01271 -0.5337,-0.01815c-0.1543,-0.00545 -0.30679,-0.01089 -0.46109,-0.01634c-0.18334,-0.00726 -0.36669,-0.01634 -0.55003,-0.0236c-0.14704,-0.00545 -0.29408,-0.01089 -0.44111,-0.01815c-0.19605,-0.00907 -0.39029,-0.01997 -0.58452,-0.02905c-0.13434,-0.00726 -0.26866,-0.01271 -0.403,-0.01997c-0.25959,-0.01452 -0.51918,-0.02905 -0.77877,-0.04538c-0.06716,-0.00363 -0.13252,-0.00726 -0.19968,-0.01089c-1.75176,-0.10892 -3.49082,-0.25233 -5.20991,-0.43386c-2.86454,-0.30134 -5.67462,-0.70252 -8.4012,-1.1981c-2.41072,-0.43931 -4.78513,-0.95847 -7.10145,-1.55208c-1.31972,-0.33764 -2.62129,-0.7007 -3.89744,-1.08555c-3.15136,-0.95122 -6.23192,-2.06762 -9.16,-3.31655h-0.00363l-0.23236,-0.09985c-0.00182,-0.00182 -0.00182,-0.00182 -0.00363,-0.00182l-5.63469,-2.42524l0.26685,0.26685c0.03994,0.03812 0.07806,0.07806 0.11799,0.11618c0.10892,0.10892 0.21783,0.21602 0.32857,0.32313c0.04901,0.0472 0.09803,0.09621 0.14704,0.14341c0.1071,0.10347 0.21239,0.20513 0.31949,0.3086l0.13614,0.1307c0.14159,0.13434 0.28319,0.27048 0.42478,0.40482c0.01089,0.00907 0.01997,0.01815 0.02905,0.02723c0.15067,0.14523 0.30497,0.28863 0.45745,0.43204c0.04356,0.04175 0.08895,0.08169 0.13252,0.12344c0.11074,0.10165 0.22328,0.20513 0.33402,0.3086c0.05083,0.04901 0.10165,0.09621 0.1543,0.14341c0.11074,0.09985 0.21965,0.2015 0.33039,0.30134c0.04901,0.04356 0.09621,0.08714 0.14341,0.1307c0.15067,0.13614 0.30134,0.2723 0.45382,0.40844c0.00363,0.00545 0.00907,0.00907 0.01452,0.01452c0.15793,0.13978 0.31586,0.28137 0.4738,0.42115l0.14159,0.12525c0.11255,0.09985 0.22691,0.19787 0.33946,0.29771c0.05446,0.04901 0.10892,0.09621 0.16338,0.14341c0.11255,0.09803 0.22691,0.19605 0.33946,0.29408c0.04901,0.04175 0.09803,0.08532 0.14704,0.12707l0.48469,0.41389c3.2748,2.77923 6.85275,5.45861 10.63947,7.96916c4.69255,3.1096 9.77901,6.01227 15.11599,8.62448z"
                    data-paper-data="{&quot;isPathIcon&quot;:true}"
                    style="fill: #75FA88;"></path>
            </g>
            <g data-paper-data="{&quot;isPrimaryText&quot;:true}" fill-rule="nonzero">
                <path
                    d="M165.22233,216.56372c-0.54002,3.23193 0.85674,6.55924 4.33538,7.14049c1.99837,0.33391 4.09162,-0.05177 5.4456,-2.69122l1.13176,-2.2201c0.41979,-0.84282 0.86,-1.35254 1.35342,-1.2701c0.69079,0.11543 0.80559,0.94613 0.61597,2.081c-0.30917,1.85034 -1.46129,3.5852 -2.90934,4.96629l4.46549,0.74614c1.27941,-1.28247 2.38637,-3.20239 2.71616,-5.17609c0.63896,-3.82404 -1.12375,-7.23786 -4.28167,-7.76551c-1.57896,-0.26383 -3.48314,0.35632 -4.79584,2.59691l-0.96293,1.66503c-0.74895,1.29502 -1.22638,2.33109 -2.04053,2.19505c-0.76481,-0.12779 -0.90834,-1.0901 -0.72696,-2.17563c0.3133,-1.87501 1.239,-3.0137 2.28812,-4.28392l-4.46549,-0.74614c-0.98323,1.02763 -1.8476,3.01345 -2.16914,4.93781z"
                    data-paper-data="{&quot;glyphName&quot;:&quot;S&quot;,&quot;glyphIndex&quot;:0,&quot;firstGlyphOfWord&quot;:true,&quot;word&quot;:1}"
                    style="fill: #75FA88;"></path>
                <path
                    d="M173.56164,189.4953l-1.61734,4.38897l9.24735,3.40765c1.61946,0.59677 2.43468,1.85685 1.76624,3.74313c-0.66844,1.88628 -2.15332,2.29878 -3.77278,1.702l-9.24735,-3.40765l-1.61734,4.38897l9.55246,3.52008c4.10732,1.51355 7.74796,-0.7703 9.19232,-4.68986c1.44436,-3.91956 0.15621,-8.01967 -3.95112,-9.53322z"
                    data-paper-data="{&quot;glyphName&quot;:&quot;U&quot;,&quot;glyphIndex&quot;:1,&quot;word&quot;:1}"
                    style="fill: #75FA88;"></path>
                <path
                    d="M177.30992,182.02705l14.19551,8.90774l2.48619,-3.96203l-4.19509,-2.63244c0.70337,-0.41501 1.48942,-1.10296 2.16747,-2.18351c1.72837,-2.75435 1.43562,-6.57025 -1.84842,-8.631c-3.3476,-2.10063 -7.19512,-0.43982 -8.98997,2.42047zM188.12158,180.98594c-0.38556,0.61443 -0.87165,1.10672 -1.33364,1.46648l-3.28404,-2.06075l1.03702,-1.65261c0.78441,-1.25005 1.85671,-1.87651 3.02201,-1.14527c1.01699,0.63817 1.34306,2.1421 0.55865,3.39215z"
                    data-paper-data="{&quot;glyphName&quot;:&quot;P&quot;,&quot;glyphIndex&quot;:2,&quot;word&quot;:1}"
                    style="fill: #75FA88;"></path>
                <path
                    d="M195.13144,163.67021l5.09132,-5.54654l-2.85619,-2.62178l-8.25437,8.9924l12.34613,11.33285l8.25437,-8.9924l-2.94833,-2.70635l-5.09132,5.54654l-2.00855,-1.8437l4.49931,-4.9016l-2.57979,-2.36806l-4.49931,4.9016z"
                    data-paper-data="{&quot;glyphName&quot;:&quot;E&quot;,&quot;glyphIndex&quot;:3,&quot;word&quot;:1}"
                    style="fill: #75FA88;"></path>
                <path
                    d="M221.05175,157.87649l4.60895,-3.35888l-7.44463,-2.18849c1.42533,-1.78156 1.69708,-4.08427 0.23863,-6.08553c-2.32764,-3.19392 -6.22216,-2.67702 -8.95115,-0.68822l-5.80162,4.22806l9.87038,13.54385l3.78015,-2.75487l-3.93342,-5.39733zM210.06016,150.56615l1.57675,-1.14909c1.19267,-0.86918 2.27363,-1.2546 3.08388,-0.14279c0.70713,0.97031 0.15652,2.08345 -1.03615,2.95263c-0.58623,0.42723 -1.22041,0.7037 -1.78299,0.86608z"
                    data-paper-data="{&quot;glyphName&quot;:&quot;R&quot;,&quot;glyphIndex&quot;:4,&quot;word&quot;:1}"
                    style="fill: #75FA88;"></path>
                <path
                    d="M227.20556,134.45657c-4.07047,2.03856 -6.50595,6.83906 -4.01936,11.80414c2.48659,4.96508 7.78949,5.89009 11.85996,3.85153c1.56557,-0.78406 2.72819,-1.92582 3.2978,-3.3021l-2.02736,-4.04811c-0.70372,1.55535 -1.35191,2.49542 -3.07404,3.35789c-2.01287,1.00808 -4.64216,0.22675 -5.76224,-2.00977c-1.12009,-2.23652 -0.17093,-4.80999 1.84194,-5.81806c1.72212,-0.86247 2.86315,-0.81847 4.53015,-0.45041l-2.02736,-4.04811c-1.44327,-0.36821 -3.05393,-0.12106 -4.6195,0.663z"
                    data-paper-data="{&quot;glyphName&quot;:&quot;C&quot;,&quot;glyphIndex&quot;:5,&quot;word&quot;:1}"
                    style="fill: #75FA88;"></path>
                <path
                    d="M251.48853,141.62838l1.40391,1.94377l5.24938,-1.47581l-12.06817,-14.27558l-2.26349,0.63636l-2.86126,18.47285l5.24938,-1.47581l0.18535,-2.39058zM249.1246,138.39553l-2.43205,0.68375l0.29384,-3.66826z"
                    data-paper-data="{&quot;glyphName&quot;:&quot;A&quot;,&quot;glyphIndex&quot;:6,&quot;word&quot;:1}"
                    style="fill: #75FA88;"></path>
                <path
                    d="M265.21795,124.11239c-3.26412,0.28724 -6.13516,2.47335 -5.826,5.98664c0.1776,2.01828 1.07561,3.94805 3.97016,4.59729l2.43289,0.53921c0.92113,0.19515 1.52492,0.49356 1.56877,0.9919c0.06139,0.69768 -0.71402,1.01701 -1.8602,1.11787c-1.86877,0.16445 -3.83701,-0.51609 -5.53695,-1.57177l0.39687,4.50997c1.56219,0.91715 3.69827,1.50758 5.69163,1.33217c3.86213,-0.33986 6.7252,-2.90192 6.44454,-6.09129c-0.14033,-1.59469 -1.21794,-3.28266 -3.71601,-3.99191l-1.85322,-0.51489c-1.4414,-0.40047 -2.56406,-0.603 -2.63641,-1.42526c-0.06797,-0.77243 0.82764,-1.15256 1.92399,-1.24903c1.89369,-0.16664 3.22804,0.44413 4.72067,1.14141l-0.39687,-4.50997c-1.24126,-0.69429 -3.38033,-1.03336 -5.32386,-0.86234z"
                    data-paper-data="{&quot;glyphName&quot;:&quot;S&quot;,&quot;glyphIndex&quot;:7,&quot;word&quot;:1}"
                    style="fill: #75FA88;"></path>
                <path
                    d="M285.39659,128.60376l2.81858,0.21148l0.30881,-4.11562l-10.30152,-0.77295l-0.30881,4.11562l2.81858,0.21148l-0.63633,8.48067l-2.81858,-0.21148l-0.30881,4.11562l10.30152,0.77295l0.30881,-4.11562l-2.81858,-0.21148z"
                    data-paper-data="{&quot;glyphName&quot;:&quot;I&quot;,&quot;glyphIndex&quot;:8,&quot;word&quot;:1}"
                    style="fill: #75FA88;"></path>
                <path
                    d="M307.17883,146.50238l4.48729,-16.40643l-4.51177,-1.23401l-2.21065,8.08258l-6.38499,-10.69288l-1.59239,-0.43553l-4.48729,16.40643l4.51177,1.23401l2.17106,-7.93782l6.42458,10.54811z"
                    data-paper-data="{&quot;glyphName&quot;:&quot;N&quot;,&quot;glyphIndex&quot;:9,&quot;word&quot;:1}"
                    style="fill: #75FA88;"></path>
                <path
                    d="M326.70022,136.60744c-4.0291,-2.11915 -9.19439,-1.21835 -11.77929,3.69627c-2.5849,4.91462 -0.40039,9.68113 3.62871,11.80028c4.0291,2.11915 9.19439,1.21835 11.77929,-3.69627c2.5849,-4.91462 0.40039,-9.68113 -3.62871,-11.80028zM324.66258,140.48158c1.99241,1.04793 2.58024,3.47676 1.41587,5.69055c-1.16437,2.21379 -3.49875,3.10565 -5.49116,2.05772c-1.99241,-1.04793 -2.58024,-3.47676 -1.41587,-5.69055c1.16437,-2.21379 3.49875,-3.10565 5.49116,-2.05772z"
                    data-paper-data="{&quot;glyphName&quot;:&quot;O&quot;,&quot;glyphIndex&quot;:10,&quot;word&quot;:1}"
                    style="fill: #75FA88;"></path>
                <path
                    d="M344.56675,148.10223c-2.55828,-2.04749 -6.14429,-2.45058 -8.34807,0.30299c-1.266,1.58184 -1.95004,3.59741 -0.30594,6.0666l1.38635,2.07068c0.53111,0.77749 0.76146,1.41037 0.44887,1.80095c-0.43763,0.54681 -1.21885,0.24195 -2.11718,-0.47702c-1.46467,-1.17223 -2.41745,-3.02406 -2.91707,-4.96175l-2.82897,3.53473c0.49576,1.74236 1.63213,3.64502 3.19444,4.89539c3.02698,2.4226 6.86696,2.54839 8.86755,0.0487c1.0003,-1.24985 1.38744,-3.2147 0.07143,-5.45334l-0.98408,-1.65262c-0.76539,-1.28537 -1.43711,-2.20742 -0.92133,-2.85187c0.48452,-0.6054 1.39464,-0.26144 2.25391,0.42626c1.48419,1.18785 2.02691,2.55131 2.62427,4.08665l2.82897,-3.53473c-0.41771,-1.35952 -1.72991,-3.08252 -3.25316,-4.30163z"
                    data-paper-data="{&quot;glyphName&quot;:&quot;S&quot;,&quot;glyphIndex&quot;:11,&quot;word&quot;:1}"
                    style="fill: #75FA88;"></path>
                <path
                    d="M347.93942,169.05663l9.48761,-8.33937l-3.08804,-3.51323l-12.58753,11.06411l8.05864,9.16823l3.09991,-2.72474z"
                    data-paper-data="{&quot;glyphName&quot;:&quot;L&quot;,&quot;glyphIndex&quot;:12,&quot;word&quot;:1}"
                    style="fill: #75FA88;"></path>
                <path
                    d="M370.54897,178.21417c-2.32779,-3.91227 -7.20242,-5.84348 -11.97454,-3.00409c-4.77211,2.83939 -5.40045,8.04485 -3.07267,11.95713c2.32779,3.91227 7.20242,5.84348 11.97454,3.00409c4.77211,-2.83939 5.40045,-8.04485 3.07267,-11.95713zM366.78717,180.45242c1.1511,1.93464 0.38305,4.31263 -1.76655,5.59163c-2.1496,1.279 -4.60594,0.81952 -5.75705,-1.11512c-1.1511,-1.93464 -0.38305,-4.31263 1.76655,-5.59163c2.1496,-1.279 4.60594,-0.81952 5.75705,1.11512z"
                    data-paper-data="{&quot;glyphName&quot;:&quot;O&quot;,&quot;glyphIndex&quot;:13,&quot;word&quot;:1}"
                    style="fill: #75FA88;"></path>
                <path
                    d="M378.08807,206.31152l3.89228,-1.37254l-4.83302,-13.70553l-3.89228,1.37254l1.63873,4.64714l-11.84195,4.17586l1.55555,4.41125l11.84195,-4.17586z"
                    data-paper-data="{&quot;glyphName&quot;:&quot;T&quot;,&quot;glyphIndex&quot;:14,&quot;word&quot;:1}"
                    style="fill: #75FA88;"></path>
                <path
                    d="M384.79348,216.64502c-0.54002,-3.23193 -2.94263,-5.9244 -6.42128,-5.34316c-1.99837,0.33391 -3.85252,1.37916 -4.27486,4.31541l-0.34852,2.46744c-0.12298,0.93351 -0.37356,1.55866 -0.86699,1.64111c-0.69079,0.11543 -1.06942,-0.63283 -1.25905,-1.76771c-0.30917,-1.85034 0.21635,-3.86552 1.13674,-5.64235l-4.46549,0.74614c-0.79297,1.62874 -1.21563,3.80425 -0.88584,5.77794c0.63896,3.82404 3.41576,6.47935 6.57368,5.95169c1.57896,-0.26383 3.17809,-1.46935 3.69106,-4.01499l0.36932,-1.88763c0.28725,-1.46816 0.40192,-2.60316 1.21607,-2.7392c0.76481,-0.12779 1.21339,0.73558 1.39477,1.82111c0.3133,1.87501 -0.19193,3.25279 -0.77111,4.79509l4.46549,-0.74614c0.59573,-1.29146 0.76755,-3.45042 0.44601,-5.37477z"
                    data-paper-data="{&quot;glyphName&quot;:&quot;S&quot;,&quot;glyphIndex&quot;:15,&quot;lastGlyphOfWord&quot;:true,&quot;word&quot;:1}"
                    style="fill: #75FA88;"></path>
            </g>
            <g data-paper-data="{&quot;isMirroredPrimaryText&quot;:true}" fill-rule="nonzero">
                <path
                    d="M182.12213,250.61258c-0.54002,-3.23193 -2.94263,-5.9244 -6.42128,-5.34316c-1.99837,0.33391 -3.85252,1.37916 -4.27486,4.31541l-0.34852,2.46744c-0.12298,0.93351 -0.37356,1.55866 -0.86699,1.64111c-0.69079,0.11543 -1.06942,-0.63283 -1.25905,-1.76771c-0.30917,-1.85034 0.21635,-3.86552 1.13674,-5.64235l-4.46549,0.74614c-0.79297,1.62874 -1.21563,3.80425 -0.88584,5.77794c0.63896,3.82404 3.41576,6.47935 6.57368,5.95169c1.57896,-0.26383 3.17809,-1.46935 3.69106,-4.01499l0.36932,-1.88763c0.28725,-1.46816 0.40192,-2.60316 1.21607,-2.7392c0.76481,-0.12779 1.21339,0.73558 1.39477,1.82111c0.3133,1.87501 -0.19193,3.25279 -0.77111,4.79509l4.46549,-0.74614c0.59573,-1.29146 0.76755,-3.45042 0.44601,-5.37477z"
                    data-paper-data="{&quot;glyphName&quot;:&quot;S&quot;,&quot;glyphIndex&quot;:0,&quot;firstGlyphOfWord&quot;:true,&quot;word&quot;:1}"
                    style="fill: #75FA88;"></path>
                <path
                    d="M189.02865,274.8052l-1.61734,-4.38897l-9.24735,3.40765c-1.61946,0.59677 -3.0574,0.16698 -3.77278,-1.702c-0.71538,-1.86899 0.14678,-3.14636 1.76624,-3.74313l9.24735,-3.40765l-1.61734,-4.38897l-9.55246,3.52008c-4.10732,1.51355 -5.39547,5.61366 -3.95112,9.53322c1.44436,3.91956 5.085,6.20341 9.19232,4.68986z"
                    data-paper-data="{&quot;glyphName&quot;:&quot;U&quot;,&quot;glyphIndex&quot;:1,&quot;word&quot;:1}"
                    style="fill: #75FA88;"></path>
                <path
                    d="M191.18763,279.26473l-14.19551,8.90774l2.48619,3.96203l4.19509,-2.63244c0.06775,0.81386 0.34531,1.82089 1.02336,2.90145c1.72837,2.75435 5.29172,4.15054 8.57575,2.08979c3.3476,-2.10063 3.52567,-6.28752 1.73082,-9.14781zM187.42239,289.4529c-0.38556,-0.61443 -0.6174,-1.26626 -0.7404,-1.83874l3.28404,-2.06075l1.03702,1.65261c0.78441,1.25005 0.88209,2.48808 -0.28321,3.21932c-1.01699,0.63817 -2.51303,0.27761 -3.29745,-0.97244z"
                    data-paper-data="{&quot;glyphName&quot;:&quot;P&quot;,&quot;glyphIndex&quot;:2,&quot;word&quot;:1}"
                    style="fill: #75FA88;"></path>
                <path
                    d="M201.48877,300.49432l5.09132,5.54654l2.85619,-2.62178l-8.25437,-8.9924l-12.34613,11.33285l8.25437,8.9924l2.94833,-2.70635l-5.09132,-5.54654l2.00855,-1.8437l4.49931,4.9016l2.57979,-2.36806l-4.49931,-4.9016z"
                    data-paper-data="{&quot;glyphName&quot;:&quot;E&quot;,&quot;glyphIndex&quot;:3,&quot;word&quot;:1}"
                    style="fill: #75FA88;"></path>
                <path
                    d="M210.96039,325.97068l4.60895,3.35888l-0.19653,-7.75715c2.13246,0.81126 4.40776,0.36477 5.86622,-1.63649c2.32764,-3.19392 0.64291,-6.74303 -2.08608,-8.73184l-5.80162,-4.22806l-9.87038,13.54385l3.78015,2.75487l3.93342,-5.39733zM214.5534,313.26846l1.57675,1.14909c1.19267,0.86918 1.8906,1.78018 1.08034,2.89199c-0.70713,0.97031 -1.93541,0.78704 -3.12808,-0.08214c-0.58623,-0.42723 -1.04363,-0.94628 -1.3705,-1.43209z"
                    data-paper-data="{&quot;glyphName&quot;:&quot;R&quot;,&quot;glyphIndex&quot;:4,&quot;word&quot;:1}"
                    style="fill: #75FA88;"></path>
                <path
                    d="M234.87815,320.22333c-4.07047,-2.03856 -9.37337,-1.11356 -11.85996,3.85153c-2.48659,4.96508 -0.05111,9.76558 4.01936,11.80414c1.56557,0.78406 3.17623,1.03121 4.6195,0.663l2.02736,-4.04811c-1.667,0.36806 -2.80802,0.41206 -4.53015,-0.45041c-2.01287,-1.00808 -2.96203,-3.58154 -1.84194,-5.81806c1.12009,-2.23652 3.74937,-3.01785 5.76224,-2.00977c1.72212,0.86247 2.37031,1.80254 3.07404,3.35789l2.02736,-4.04811c-0.5696,-1.37628 -1.73223,-2.51804 -3.2978,-3.3021z"
                    data-paper-data="{&quot;glyphName&quot;:&quot;C&quot;,&quot;glyphIndex&quot;:5,&quot;word&quot;:1}"
                    style="fill: #75FA88;"></path>
                <path
                    d="M248.06979,340.53198l0.18535,2.39058l5.24938,1.47581l-2.86126,-18.47285l-2.26349,-0.63636l-12.06817,14.27558l5.24938,1.47581l1.40391,-1.94377zM247.73679,336.54092l-2.43205,-0.68375l2.1623,-2.97774z"
                    data-paper-data="{&quot;glyphName&quot;:&quot;A&quot;,&quot;glyphIndex&quot;:6,&quot;word&quot;:1}"
                    style="fill: #75FA88;"></path>
                <path
                    d="M266.71991,328.81958c-3.26412,-0.28724 -6.47283,1.36387 -6.78199,4.87716c-0.1776,2.01828 0.36958,4.07522 3.10626,5.22l2.30133,0.95581c0.87289,0.35302 1.41529,0.75229 1.37143,1.25063c-0.06139,0.69768 -0.88066,0.87668 -2.02684,0.77582c-1.86877,-0.16445 -3.68791,-1.17827 -5.17735,-2.51461l-0.39687,4.50997c1.37801,1.17588 3.37815,2.13029 5.37151,2.30571c3.86213,0.33986 7.12864,-1.68281 7.4093,-4.87218c0.14033,-1.59469 -0.62592,-3.44492 -2.96174,-4.57953l-1.73482,-0.83063c-1.34931,-0.64604 -2.41934,-1.04152 -2.34698,-1.86378c0.06797,-0.77243 1.01621,-0.9903 2.11256,-0.89383c1.89369,0.16664 3.10087,1.00106 4.44878,1.9483l0.39687,-4.50997c-1.10093,-0.9004 -3.14791,-1.60784 -5.09144,-1.77886z"
                    data-paper-data="{&quot;glyphName&quot;:&quot;S&quot;,&quot;glyphIndex&quot;:7,&quot;word&quot;:1}"
                    style="fill: #75FA88;"></path>
                <path
                    d="M284.78834,333.28981l2.81858,-0.21148l-0.30881,-4.11562l-10.30152,0.77295l0.30881,4.11562l2.81858,-0.21148l0.63633,8.48067l-2.81858,0.21148l0.30881,4.11562l10.30152,-0.77295l-0.30881,-4.11562l-2.81858,0.21148z"
                    data-paper-data="{&quot;glyphName&quot;:&quot;I&quot;,&quot;glyphIndex&quot;:8,&quot;word&quot;:1}"
                    style="fill: #75FA88;"></path>
                <path
                    d="M311.8311,340.50733l-4.48729,-16.40643l-4.51177,1.23401l2.21065,8.08258l-10.93827,-5.95483l-1.59239,0.43553l4.48729,16.40643l4.51177,-1.23401l-2.17106,-7.93782l10.89868,5.81006z"
                    data-paper-data="{&quot;glyphName&quot;:&quot;N&quot;,&quot;glyphIndex&quot;:9,&quot;word&quot;:1}"
                    style="fill: #75FA88;"></path>
                <path
                    d="M318.72429,318.22817c-4.0291,2.11915 -6.21361,6.88566 -3.62871,11.80028c2.5849,4.91462 7.75019,5.81542 11.77929,3.69627c4.0291,-2.11915 6.21361,-6.88566 3.62871,-11.80028c-2.5849,-4.91462 -7.75019,-5.81542 -11.77929,-3.69627zM320.76194,322.10231c1.99241,-1.04793 4.32679,-0.15607 5.49116,2.05772c1.16437,2.21379 0.57654,4.64262 -1.41587,5.69055c-1.99241,1.04793 -4.32679,0.15607 -5.49116,-2.05772c-1.16437,-2.21379 -0.57654,-4.64262 1.41587,-5.69055z"
                    data-paper-data="{&quot;glyphName&quot;:&quot;O&quot;,&quot;glyphIndex&quot;:10,&quot;word&quot;:1}"
                    style="fill: #75FA88;"></path>
                <path
                    d="M333.86042,308.52059c-2.55828,2.04749 -3.73732,5.45803 -1.53354,8.2116c1.266,1.58184 3.08271,2.69089 5.85215,1.62777l2.32413,-0.89895c0.87497,-0.34785 1.54295,-0.43393 1.85554,-0.04335c0.43763,0.54681 -0.031,1.24225 -0.92932,1.96121c-1.46467,1.17223 -3.48027,1.6961 -5.48034,1.75901l2.82897,3.53473c1.80865,-0.10194 3.91407,-0.79381 5.47638,-2.04418c3.02698,-2.4226 3.9911,-6.1417 1.9905,-8.6414c-1.0003,-1.24985 -2.83257,-2.0581 -5.30517,-1.26459l-1.82808,0.59806c-1.42184,0.46516 -2.46867,0.91851 -2.98445,0.27406c-0.48452,-0.6054 0.05049,-1.41804 0.90976,-2.10574c1.48419,-1.18785 2.93343,-1.41863 4.56235,-1.66507l-2.82897,-3.53473c-1.41801,0.10967 -3.38665,1.01246 -4.90991,2.23157z"
                    data-paper-data="{&quot;glyphName&quot;:&quot;S&quot;,&quot;glyphIndex&quot;:11,&quot;word&quot;:1}"
                    style="fill: #75FA88;"></path>
                <path
                    d="M354.60893,306.80579l-9.48761,-8.33937l-3.08804,3.51323l12.58753,11.06411l8.05864,-9.16823l-3.09991,-2.72474z"
                    data-paper-data="{&quot;glyphName&quot;:&quot;L&quot;,&quot;glyphIndex&quot;:12,&quot;word&quot;:1}"
                    style="fill: #75FA88;"></path>
                <path
                    d="M355.82421,283.02475c-2.32779,3.91227 -1.69945,9.11774 3.07267,11.95713c4.77211,2.83939 9.64675,0.90818 11.97454,-3.00409c2.32779,-3.91227 1.69945,-9.11774 -3.07267,-11.95713c-4.77211,-2.83939 -9.64675,-0.90818 -11.97454,3.00409zM359.58601,285.26301c1.1511,-1.93464 3.60745,-2.39412 5.75705,-1.11512c2.1496,1.279 2.91766,3.65699 1.76655,5.59163c-1.1511,1.93464 -3.60745,2.39412 -5.75705,1.11512c-2.1496,-1.279 -2.91766,-3.65699 -1.76655,-5.59163z"
                    data-paper-data="{&quot;glyphName&quot;:&quot;O&quot;,&quot;glyphIndex&quot;:13,&quot;word&quot;:1}"
                    style="fill: #75FA88;"></path>
                <path
                    d="M370.42147,260.98508l-3.89228,-1.37254l-4.83302,13.70553l3.89228,1.37254l1.63873,-4.64714l11.84195,4.17586l1.55555,-4.41125l-11.84195,-4.17586z"
                    data-paper-data="{&quot;glyphName&quot;:&quot;T&quot;,&quot;glyphIndex&quot;:14,&quot;word&quot;:1}"
                    style="fill: #75FA88;"></path>
                <path
                    d="M367.89368,250.53129c-0.54002,3.23193 0.85674,6.55924 4.33538,7.14049c1.99837,0.33391 4.09162,-0.05177 5.4456,-2.69122l1.13176,-2.2201c0.41979,-0.84282 0.86,-1.35254 1.35342,-1.2701c0.69079,0.11543 0.80559,0.94613 0.61597,2.081c-0.30917,1.85034 -1.46129,3.5852 -2.90934,4.96629l4.46549,0.74614c1.27941,-1.28247 2.38637,-3.20239 2.71616,-5.17609c0.63896,-3.82404 -1.12375,-7.23786 -4.28167,-7.76551c-1.57896,-0.26383 -3.48314,0.35632 -4.79584,2.59691l-0.96293,1.66503c-0.74895,1.29502 -1.22638,2.33109 -2.04053,2.19505c-0.76481,-0.12779 -0.90834,-1.0901 -0.72696,-2.17563c0.3133,-1.87501 1.239,-3.0137 2.28812,-4.28392l-4.46549,-0.74614c-0.98323,1.02763 -1.8476,3.01345 -2.16914,4.93781z"
                    data-paper-data="{&quot;glyphName&quot;:&quot;S&quot;,&quot;glyphIndex&quot;:15,&quot;lastGlyphOfWord&quot;:true,&quot;word&quot;:1}"
                    style="fill: #75FA88;"></path>
            </g>
            <g data-paper-data="{&quot;isContainerElementsWrapper&quot;:true}" fill-rule="evenodd">
                <path
                    d="M183.78323,143.78328c-11.90222,11.90218 -21.11723,25.57006 -27.64501,41.00365c-6.75878,15.97974 -10.13817,32.71745 -10.13817,50.21312c0,17.49541 3.37939,34.23295 10.13817,50.21263c6.52759,15.43381 15.74259,29.10189 27.64501,41.00424c11.90324,11.90301 25.57116,21.11795 41.00375,27.64481c15.98066,6.75884 32.71837,10.13827 50.21312,10.13827c17.49534,0 34.23285,-3.37942 50.21253,-10.13827c15.43512,-6.52818 29.1032,-15.74311 41.00424,-27.64481c11.90301,-11.90432 21.11795,-25.5724 27.64481,-41.00424c6.75884,-15.98033 10.13827,-32.71788 10.13827,-50.21263c0,-17.49593 -3.37942,-34.23367 -10.13827,-50.21322c-6.52818,-15.43397 -15.74311,-29.10182 -27.64481,-41.00356c-11.90235,-11.90229 -25.57044,-21.11732 -41.00424,-27.64511c-15.97837,-6.75878 -32.71588,-10.13817 -50.21253,-10.13817c-17.4958,0 -34.23351,3.37939 -50.21312,10.13817c-15.43345,6.52778 -29.10137,15.74282 -41.00375,27.64511zM148.54474,235.00005c0,-17.15176 3.31242,-33.55906 9.93725,-49.2219c6.39882,-15.12876 15.43237,-28.52725 27.10064,-40.19546c11.6684,-11.66834 25.06692,-20.70193 40.19556,-27.10074c15.66284,-6.62483 32.07014,-9.93725 49.2219,-9.93725c17.15196,0 33.55919,3.31242 49.2217,9.93725c15.12843,6.39875 28.52718,15.43233 40.19625,27.10074c11.6671,11.66776 20.70052,25.06628 27.10025,40.19556c6.62516,15.66264 9.93774,32.06991 9.93774,49.2218c0,17.15071 -3.31258,33.55798 -9.93774,49.2218c-6.39842,15.12712 -15.43184,28.52587 -27.10025,40.19625c-11.6671,11.6671 -25.06585,20.70052 -40.19625,27.10025c-15.66251,6.62516 -32.06975,9.93774 -49.2217,9.93774c-17.15078,0 -33.55808,-3.31258 -49.2219,-9.93774c-15.1278,-6.39842 -28.52632,-15.43184 -40.19556,-27.10025c-11.66828,-11.66841 -20.70183,-25.06716 -27.10064,-40.19625c-6.62483,-15.66251 -9.93725,-32.06978 -9.93725,-49.2218z"
                    data-paper-data="{&quot;isBaseLogoContainer&quot;:true}"
                    style="fill: #75FA88;"></path>
            </g>
        </g>
    </g>
</svg>