<svg width="427" height="427" viewBox="0 0 427 427" fill="none" xmlns="http://www.w3.org/2000/svg">
<path d="M422 213.5C424.761 213.5 427.006 211.261 426.941 208.5C425.994 168.022 413.552 128.609 391.019 94.8858C367.559 59.7759 334.215 32.411 295.203 16.2517C256.191 0.09241 213.263 -4.1356 171.848 4.10234C130.433 12.3403 92.3912 32.6742 62.5327 62.5327C32.6742 92.3912 12.3403 130.433 4.10234 171.848C-4.1356 213.263 0.0924105 256.191 16.2517 295.203C32.411 334.215 59.7759 367.559 94.8858 391.019C128.609 413.552 168.022 425.994 208.5 426.941C211.261 427.006 213.5 424.761 213.5 422V421.24C213.5 418.478 211.26 416.246 208.5 416.178C170.15 415.232 132.817 403.422 100.864 382.072C67.5234 359.795 41.5377 328.131 26.1928 291.085C10.8479 254.039 6.83294 213.275 14.6557 173.947C22.4785 134.62 41.7876 98.4949 70.1413 70.1413C98.4949 41.7876 134.62 22.4785 173.947 14.6557C213.275 6.83294 254.039 10.8479 291.085 26.1928C328.131 41.5377 359.795 67.5234 382.072 100.864C403.422 132.817 415.232 170.15 416.178 208.5C416.246 211.26 418.478 213.5 421.24 213.5H422Z" fill="url(#paint0_linear_133_1678)" fill-opacity="0.7"/>
<defs>
<linearGradient id="paint0_linear_133_1678" x1="46.97" y1="40.1944" x2="289.775" y2="499.536" gradientUnits="userSpaceOnUse">
<stop stop-color="#75FA88"/>
<stop offset="1" stop-color="#75FA88" stop-opacity="0.27"/>
</linearGradient>
</defs>
</svg>
