<svg width="215" height="213" viewBox="0 0 215 213" fill="none" xmlns="http://www.w3.org/2000/svg">
<path d="M210.595 123.624C212.067 123.854 213.45 122.847 213.643 121.37C216.265 101.306 213.148 80.8886 204.625 62.4957C195.724 43.286 181.327 27.1472 163.254 16.1202C145.181 5.09307 124.243 -0.327049 103.09 0.545211C81.9359 1.41747 61.516 8.54293 44.4119 21.0205C27.3079 33.4981 14.288 50.7675 6.99872 70.6447C-0.290573 90.5219 -1.52189 112.114 3.46049 132.691C8.44286 153.268 19.4151 171.906 34.9898 186.247C49.9024 199.978 68.393 209.181 88.2996 212.81C89.7652 213.077 91.146 212.067 91.3762 210.595C91.6064 209.123 90.5987 207.747 89.1335 207.478C70.2811 204.015 52.7718 195.287 38.6442 182.278C23.8545 168.66 13.4352 150.962 8.70394 131.422C3.97267 111.882 5.14192 91.3776 12.0638 72.5022C18.9858 53.6267 31.3495 37.2277 47.5915 25.379C63.8335 13.5302 83.2243 6.76389 103.312 5.9356C123.399 5.1073 143.281 10.2543 160.444 20.7256C177.606 31.1969 191.278 46.5223 199.73 64.7638C207.804 82.1886 210.77 101.527 208.311 120.536C208.12 122.014 209.123 123.393 210.595 123.624Z" fill="url(#paint0_linear_133_1680)" fill-opacity="0.7"/>
<defs>
<linearGradient id="paint0_linear_133_1680" x1="24.0042" y1="20.6072" x2="145.743" y2="250.914" gradientUnits="userSpaceOnUse">
<stop stop-color="#75FA88"/>
<stop offset="1" stop-color="#75FA88" stop-opacity="0.27"/>
</linearGradient>
</defs>
</svg>
